<svg width="658" height="706" viewBox="0 0 658 706" fill="none" xmlns="http://www.w3.org/2000/svg">
<rect x="151.088" y="502.134" width="13.6402" height="54.5607" transform="rotate(102.664 151.088 502.134)" fill="#FFBDEA"/>
<rect x="92.0039" y="464.372" width="25.0051" height="58.3422" rx="3.20746" transform="rotate(12.6642 92.0039 464.372)" fill="white"/>
<path d="M642.178 150.739L519.308 83.4371L339.366 224.396L481.224 328.97L642.178 150.739Z" fill="#110D09"/>
<path d="M519.31 83.4372L642.18 150.739L481.226 308.056L378.469 219.622L519.31 83.4372Z" fill="#F5DAF2"/>
<path d="M446.673 40.7081L614.901 97.7695L481.228 308.056L338.698 223.541L446.673 40.7081Z" fill="white"/>
<path d="M396.517 467.928L176.399 456.101L145.367 477.026L91.8086 681.731V695.378H306.469L387.422 658.986V649.888L396.517 467.928Z" fill="#5B35FF"/>
<path d="M377.721 457.18L179.133 453.535L144.41 477.228L336.728 518.234L315.776 679.34L391.385 644.899L377.721 457.18Z" fill="#0B0704"/>
<path d="M159.289 504.213L306.709 535.324L297.114 669.718H120.035L159.289 504.213Z" fill="#FFBDEA"/>
<path d="M130.059 643.214L164.401 521.91L305.051 552.262L281.554 674.47L130.059 643.214Z" stroke="white" stroke-width="0.641492"/>
<path d="M373.09 615.476L368.266 572.783L413.905 559.792L434.734 609.439L373.09 615.476Z" fill="white" stroke="black" stroke-width="0.641492"/>
<path d="M496.623 559.551L473.862 524.529L507.893 493.387L547.593 527.494L496.623 559.551Z" fill="white" stroke="black" stroke-width="0.641492"/>
<path d="M329.82 350.34L310.27 323.06L343.006 298.962L362.557 319.877L329.82 350.34Z" fill="white"/>
<path d="M363.518 639.343C366.85 640.428 451.728 652.851 491.627 658.813C494.32 652.405 494.737 646.68 468.16 631.135C436.541 612.642 435.474 590.287 432.736 590.306C417.213 589.5 416.37 599.547 416.401 604.11C380.912 619.873 375.713 593.895 369.821 599.869C363.929 605.842 362.056 619.454 363.938 627.656C365.821 635.858 361.868 634.474 363.518 639.343Z" fill="#5B35FF"/>
<path d="M363.875 633.977L492.818 654.451C492.867 653.646 492.8 652.815 492.572 651.942L364.25 632.094C364.173 632.793 364.038 633.417 363.875 633.977Z" fill="white"/>
<path d="M432.737 590.306C417.214 589.501 416.371 599.547 416.402 604.111C416.859 604.108 422.546 608.085 441.641 624.017C460.737 639.95 468.805 636.305 470.452 632.492C469.712 632.048 468.948 631.596 468.161 631.136C436.542 612.643 435.475 590.287 432.737 590.306Z" fill="#FFBDEA"/>
<path d="M363.518 639.343C366.812 640.416 451.73 652.852 491.629 658.813L488.479 665.224L481.156 661.666L475.396 663.548L469.756 660.299L462.931 661.513L456.531 658.16L446.972 659.062L439.509 655.497L429.95 656.4L421.273 652.733L412.974 654.51L405.31 649.826L399.156 652.478L392.691 647.902L385.344 650.312L378.098 645.771L364.53 646.82C363.45 644.698 362.825 641.569 363.518 639.343Z" fill="#5B35FF"/>
<path d="M446.292 620.962L446.712 621.446L446.697 621.46L446.68 621.472L446.292 620.962ZM446.768 610.315L447.409 610.344L446.768 610.315ZM431.959 609.936L432.401 610.401L432.38 610.421L432.356 610.439L431.959 609.936ZM433.739 596.49C433.866 596.16 434.237 595.994 434.567 596.121C434.898 596.248 435.063 596.619 434.937 596.95L433.739 596.49ZM460.553 632.268C460.605 631.093 460.599 629.219 460.637 627.35C460.674 625.532 460.751 623.678 460.993 622.681L462.24 622.984C462.038 623.815 461.957 625.511 461.92 627.376C461.883 629.19 461.887 631.134 461.834 632.325L460.553 632.268ZM460.993 622.681C461.031 622.527 461.012 622.468 461.012 622.468C461.019 622.487 461.04 622.503 461.037 622.502C460.972 622.471 460.686 622.425 460.069 622.644C458.896 623.06 457.051 624.249 454.817 626.515L453.903 625.614C456.201 623.284 458.207 621.943 459.64 621.435C460.326 621.192 461.032 621.085 461.577 621.338C461.88 621.479 462.112 621.722 462.224 622.048C462.331 622.355 462.314 622.681 462.24 622.984L460.993 622.681ZM454.817 626.515C454.236 627.103 453.689 627.517 453.169 627.652C452.888 627.725 452.587 627.723 452.302 627.593C452.023 627.466 451.833 627.247 451.707 627.022C451.469 626.597 451.389 626.023 451.369 625.456C451.349 624.865 451.394 624.182 451.476 623.47C451.803 620.636 452.758 617.065 452.991 616.349L454.211 616.746C453.997 617.402 453.065 620.887 452.751 623.617C452.672 624.296 452.635 624.91 452.652 625.412C452.669 625.938 452.746 626.251 452.827 626.396C452.86 626.455 452.87 626.442 452.835 626.426C452.796 626.408 452.786 626.426 452.847 626.41C453.011 626.367 453.351 626.174 453.903 625.614L454.817 626.515ZM452.991 616.349C453.037 616.206 453.035 616.153 453.036 616.162C453.038 616.193 453.072 616.367 453.26 616.459C453.386 616.52 453.449 616.472 453.324 616.506C453.22 616.533 453.05 616.6 452.799 616.735C451.781 617.282 449.891 618.683 446.712 621.446L445.871 620.478C449.043 617.72 451.031 616.228 452.192 615.605C452.485 615.447 452.754 615.329 452.995 615.265C453.214 615.207 453.527 615.162 453.821 615.305C454.177 615.478 454.297 615.814 454.316 616.071C454.332 616.306 454.276 616.545 454.211 616.746L452.991 616.349ZM446.68 621.472C446.427 621.665 446.181 621.818 445.942 621.917C445.706 622.014 445.434 622.076 445.153 622.026C444.504 621.912 444.27 621.331 444.189 620.92C444.103 620.481 444.12 619.934 444.18 619.363C444.243 618.78 444.358 618.12 444.5 617.432C444.783 616.059 445.185 614.524 445.516 613.209C445.857 611.853 446.104 610.796 446.127 610.286L447.409 610.344C447.379 611.017 447.086 612.228 446.76 613.522C446.424 614.857 446.033 616.353 445.756 617.692C445.618 618.36 445.512 618.975 445.456 619.499C445.399 620.036 445.4 620.428 445.448 620.674C445.502 620.947 445.55 620.794 445.377 620.763C445.334 620.756 445.348 620.774 445.452 620.731C445.554 620.689 445.702 620.605 445.903 620.451L446.68 621.472ZM446.127 610.286C446.137 610.055 446.149 609.904 446.15 609.764C446.151 609.606 446.132 609.617 446.162 609.681C446.187 609.733 446.244 609.818 446.353 609.876C446.457 609.933 446.548 609.932 446.581 609.929C446.616 609.926 446.561 609.926 446.354 610.045C445.967 610.269 445.324 610.742 444.267 611.591C443.22 612.43 441.799 613.61 439.87 615.222L439.047 614.237C440.975 612.627 442.405 611.439 443.464 610.59C444.511 609.75 445.228 609.214 445.713 608.934C445.942 608.802 446.202 608.676 446.462 608.652C446.608 608.638 446.788 608.653 446.965 608.749C447.146 608.847 447.257 608.994 447.321 609.13C447.43 609.36 447.434 609.62 447.433 609.773C447.432 609.944 447.417 610.164 447.409 610.344L446.127 610.286ZM439.87 615.222C438.897 616.034 438.115 616.551 437.5 616.76C437.191 616.866 436.843 616.922 436.509 616.816C436.139 616.7 435.909 616.426 435.791 616.123C435.682 615.843 435.662 615.529 435.677 615.234C435.692 614.931 435.747 614.596 435.826 614.246C435.986 613.545 436.261 612.723 436.592 611.864C437.91 608.44 440.264 604.075 440.47 603.657L441.621 604.223C441.376 604.721 439.08 608.972 437.789 612.325C437.468 613.159 437.217 613.916 437.077 614.531C437.007 614.838 436.968 615.094 436.958 615.298C436.948 615.51 436.971 615.618 436.987 615.658C436.993 615.673 436.967 615.615 436.895 615.593C436.858 615.581 436.901 615.609 437.087 615.546C437.463 615.418 438.091 615.035 439.047 614.237L439.87 615.222ZM440.47 603.657C440.494 603.608 440.413 603.731 440.498 603.917C440.544 604.018 440.618 604.087 440.688 604.125C440.719 604.142 440.746 604.151 440.762 604.155C440.771 604.158 440.777 604.159 440.781 604.16C440.786 604.16 440.788 604.16 440.788 604.16C440.788 604.16 440.781 604.16 440.767 604.161C440.752 604.162 440.732 604.164 440.704 604.169C440.65 604.178 440.575 604.195 440.478 604.227C440.284 604.289 440.024 604.399 439.691 604.576C438.348 605.286 436.014 606.967 432.401 610.401L431.517 609.471C435.159 606.009 437.593 604.234 439.091 603.441C439.469 603.242 439.799 603.098 440.083 603.006C440.358 602.917 440.633 602.862 440.883 602.881C441.132 602.899 441.495 603.01 441.666 603.387C441.817 603.72 441.709 604.043 441.621 604.223L440.47 603.657ZM432.356 610.439C432.077 610.659 431.81 610.833 431.554 610.945C431.304 611.054 431.007 611.129 430.701 611.064C430.365 610.994 430.129 610.779 429.987 610.527C429.857 610.294 429.802 610.027 429.78 609.78C429.735 609.282 429.805 608.652 429.932 607.974C430.061 607.285 430.259 606.499 430.497 605.671C431.444 602.367 433.072 598.227 433.739 596.49L434.937 596.95C434.261 598.71 432.658 602.788 431.73 606.024C431.499 606.831 431.312 607.575 431.193 608.211C431.072 608.858 431.029 609.347 431.057 609.665C431.072 609.824 431.1 609.889 431.106 609.898C431.106 609.899 431.095 609.88 431.066 609.857C431.035 609.832 430.999 609.816 430.966 609.809C430.908 609.797 430.918 609.823 431.041 609.769C431.159 609.718 431.33 609.615 431.562 609.432L432.356 610.439Z" fill="#5B35FF"/>
<path d="M498.679 584.466C502.048 583.96 581.247 557.85 618.529 545.682C618.085 538.94 615.958 533.781 586.09 531.824C550.558 529.495 539.908 510.522 537.535 511.73C523.689 517.78 527.325 526.881 529.337 530.835C505.336 559.973 489.518 539.648 486.993 547.404C484.468 555.16 488.759 567.809 493.962 574.121C499.165 580.434 495.127 580.95 498.679 584.466Z" fill="#5B35FF"/>
<path d="M496.657 579.644L617.669 541.372C617.362 540.65 616.942 539.958 616.365 539.297L496.165 577.844C496.402 578.486 496.555 579.087 496.657 579.644Z" fill="white"/>
<path d="M537.534 511.73C523.687 517.781 527.323 526.882 529.335 530.836C529.73 530.635 536.404 531.619 559.935 537.168C583.467 542.716 588.897 536.039 588.67 532.007C587.834 531.943 586.973 531.883 586.088 531.825C550.556 529.496 539.906 510.523 537.534 511.73Z" fill="#FFBDEA"/>
<path d="M498.682 584.465C502.012 583.965 581.252 557.849 618.535 545.681L618.584 552.625L610.669 552.716L606.48 556.857L600.163 556.486L594.757 560.509L587.734 560.377L579.816 565.318L571.777 565.463L563.859 570.405L554.719 570.991L548.277 576.145L539.577 575.405L535.379 580.387L527.769 579.22L522.429 584.511L514.154 583.714L502.813 590.526C500.952 589.15 499.047 586.702 498.682 584.465Z" fill="#5B35FF"/>
<path d="M562.652 532.488L563.245 532.732L563.237 532.752L563.228 532.771L562.652 532.488ZM558.436 523.024L559.022 522.763L558.436 523.024ZM545.396 529.134L545.999 529.352L545.989 529.38L545.976 529.407L545.396 529.134ZM541.078 516.672C541.044 516.319 541.302 516.005 541.654 515.971C542.007 515.936 542.321 516.194 542.355 516.547L541.078 516.672ZM579.951 536.123C579.486 535.079 578.667 533.453 577.886 531.811C577.128 530.215 576.388 528.568 576.165 527.593L577.415 527.306C577.601 528.115 578.267 529.622 579.045 531.261C579.802 532.853 580.652 534.542 581.123 535.601L579.951 536.123ZM576.165 527.593C576.131 527.445 576.089 527.405 576.093 527.408C576.096 527.412 576.107 527.42 576.124 527.427C576.14 527.433 576.148 527.432 576.143 527.432C576.08 527.434 575.815 527.514 575.375 527.971C574.538 528.84 573.453 530.674 572.496 533.614L571.276 533.217C572.261 530.19 573.423 528.15 574.45 527.082C574.942 526.571 575.514 526.167 576.105 526.149C576.434 526.14 576.746 526.253 576.99 526.491C577.218 526.714 577.347 527.009 577.415 527.306L576.165 527.593ZM572.496 533.614C572.247 534.379 571.95 534.98 571.553 535.327C571.338 535.514 571.071 535.646 570.762 535.657C570.459 535.668 570.195 535.559 569.985 535.416C569.59 535.148 569.269 534.681 569.005 534.195C568.731 533.69 568.472 533.075 568.234 532.42C567.285 529.812 566.562 526.291 566.453 525.566L567.722 525.376C567.821 526.038 568.526 529.472 569.439 531.981C569.666 532.606 569.9 533.155 570.133 533.583C570.376 534.031 570.577 534.267 570.707 534.355C570.759 534.391 570.758 534.374 570.717 534.375C570.67 534.377 570.665 534.399 570.709 534.36C570.829 534.256 571.039 533.943 571.276 533.217L572.496 533.614ZM566.453 525.566C566.431 525.423 566.407 525.381 566.413 525.391C566.43 525.42 566.54 525.562 566.752 525.56C566.895 525.558 566.933 525.486 566.84 525.569C566.763 525.636 566.646 525.767 566.486 525.993C565.84 526.909 564.807 528.948 563.245 532.732L562.059 532.243C563.618 528.466 564.698 526.302 565.438 525.254C565.625 524.989 565.808 524.768 565.991 524.606C566.157 524.46 566.414 524.281 566.738 524.277C567.132 524.273 567.387 524.518 567.517 524.737C567.635 524.937 567.691 525.172 567.722 525.376L566.453 525.566ZM563.228 532.771C563.091 533.048 562.943 533.29 562.777 533.481C562.612 533.671 562.4 533.845 562.13 533.926C561.505 534.111 561.041 533.7 560.792 533.376C560.525 533.03 560.3 532.545 560.104 532.022C559.905 531.488 559.718 530.863 559.542 530.203C559.191 528.885 558.873 527.375 558.589 526.088C558.295 524.76 558.051 523.736 557.85 523.285L559.022 522.763C559.289 523.363 559.562 524.546 559.841 525.811C560.13 527.118 560.44 528.589 560.782 529.873C560.952 530.513 561.127 531.094 561.306 531.573C561.49 532.064 561.661 532.403 561.808 532.593C561.972 532.805 561.94 532.644 561.765 532.696C561.72 532.709 561.738 532.721 561.808 532.64C561.877 532.561 561.968 532.425 562.076 532.205L563.228 532.771ZM557.85 523.285C557.758 523.078 557.703 522.943 557.643 522.821C557.575 522.683 557.565 522.705 557.623 522.75C557.669 522.786 557.759 522.837 557.884 522.841C558.004 522.845 558.086 522.803 558.115 522.785C558.148 522.765 558.102 522.785 557.974 522.979C557.735 523.34 557.383 524.03 556.832 525.228C556.287 526.413 555.565 528.057 554.589 530.297L553.412 529.784C554.388 527.546 555.116 525.891 555.667 524.692C556.212 523.506 556.602 522.728 556.903 522.272C557.045 522.057 557.218 521.832 557.437 521.695C557.56 521.619 557.727 521.552 557.927 521.559C558.131 521.565 558.295 521.647 558.413 521.739C558.611 521.894 558.729 522.122 558.794 522.255C558.868 522.405 558.951 522.604 559.022 522.763L557.85 523.285ZM554.589 530.297C554.096 531.426 553.64 532.218 553.194 532.67C552.969 532.898 552.688 533.101 552.346 533.155C551.968 533.216 551.643 533.075 551.406 532.86C551.187 532.662 551.032 532.395 550.916 532.131C550.797 531.86 550.698 531.543 550.615 531.204C550.449 530.524 550.33 529.689 550.244 528.797C549.901 525.246 550.05 520.426 550.047 519.974L551.33 519.965C551.333 520.506 551.186 525.199 551.521 528.674C551.605 529.539 551.716 530.305 551.861 530.899C551.934 531.196 552.011 531.435 552.09 531.615C552.173 531.803 552.239 531.884 552.267 531.909C552.276 531.917 552.223 531.876 552.144 531.888C552.102 531.895 552.148 531.904 552.281 531.769C552.549 531.497 552.929 530.893 553.412 529.784L554.589 530.297ZM550.047 519.974C550.046 519.923 550.03 520.072 550.191 520.202C550.278 520.273 550.377 520.301 550.457 520.304C550.494 520.305 550.522 520.301 550.539 520.298C550.557 520.294 550.566 520.29 550.567 520.29C550.567 520.29 550.546 520.299 550.502 520.331C550.459 520.362 550.402 520.409 550.333 520.478C550.192 520.616 550.014 520.824 549.802 521.121C548.944 522.321 547.646 524.796 545.999 529.352L544.792 528.916C546.453 524.322 547.798 521.718 548.758 520.375C549 520.037 549.225 519.768 549.433 519.563C549.634 519.365 549.851 519.197 550.08 519.103C550.307 519.01 550.679 518.946 550.998 519.205C551.281 519.434 551.328 519.768 551.33 519.965L550.047 519.974ZM545.976 529.407C545.829 529.72 545.671 529.989 545.496 530.199C545.325 530.404 545.096 530.601 544.797 530.68C544.469 530.766 544.165 530.68 543.928 530.52C543.711 530.373 543.545 530.162 543.418 529.955C543.161 529.54 542.947 528.96 542.763 528.315C542.575 527.658 542.405 526.888 542.252 526.065C541.639 522.78 541.254 518.471 541.078 516.672L542.355 516.547C542.533 518.371 542.913 522.613 543.513 525.83C543.663 526.631 543.824 527.359 543.997 527.962C544.172 528.577 544.348 529.02 544.509 529.281C544.547 529.343 544.58 529.387 544.606 529.417C544.633 529.448 544.648 529.458 544.648 529.458C544.634 529.449 544.562 529.415 544.472 529.438C544.412 529.454 544.429 529.475 544.511 529.377C544.59 529.282 544.693 529.12 544.815 528.861L545.976 529.407Z" fill="#5B35FF"/>
<path d="M347.098 302.6L303.904 257.132L285.717 278.957L299.812 343.066L347.098 302.6Z" fill="#234DF0"/>
<path d="M285.717 278.957L299.812 343.065L326.183 320.498L298.599 263.498L285.717 278.957Z" fill="#110D09"/>
<path d="M299.283 259.707C284.605 243.386 279.487 231.047 287.212 220.846C286.247 219.227 281.515 214.24 270.313 207.245C268.382 228.23 252.448 247.725 244.722 254.85C258.886 258.736 289.626 265.148 299.283 259.707Z" fill="white" stroke="black" stroke-width="0.641492"/>
<path d="M287.211 220.846C286.245 219.227 281.513 214.24 270.312 207.245C270.514 218.518 274.177 241.526 287.211 243.377C282.579 234.686 282.298 227.334 287.211 220.846Z" fill="#110D09" stroke="black" stroke-width="0.641492"/>
<path d="M282.394 233.111C301.79 240.921 303.574 207.892 302.041 190.401C266.888 165.135 270.585 186.378 271.379 196.575C260.578 202.103 264.336 211.025 271.517 211.446C271.027 224.831 272.907 229.291 282.394 233.111Z" fill="white" stroke="black" stroke-width="0.641492"/>
<path d="M291.279 170.149C307.677 164.081 312.66 186.36 306.965 194.203C302.409 200.478 291.968 191.543 287.316 186.292C284.255 187.593 279.45 186.926 274.431 183.638C277.042 189.757 271.347 197.6 271.774 202.84C259.102 202.806 267.17 211.123 271.976 211.791C260.499 240.295 247.978 263.044 221.986 258.176C166.591 247.803 193.417 185.456 220.869 197.971C245.587 209.239 243.392 191.412 251.294 171.788C259.196 152.163 287.791 166.21 291.279 170.149Z" fill="#110D09"/>
<path d="M250.78 168.587C256.673 156.865 268.517 159.12 273.551 161.215C271.569 147.734 263.724 143.98 256.648 144.053C246.034 144.164 243.947 160.68 250.78 168.587Z" fill="#110D09"/>
<path d="M360.285 588.134L331.186 422.633L410.753 412.63L432.578 579.041L360.285 588.134Z" fill="#D89314"/>
<path d="M331.186 422.633L410.753 412.63L430.133 560.399C428.463 547.668 421.211 516.296 414.391 495.835C410.999 484.923 378.017 438.092 366.195 444.912C356.738 450.368 342.806 454.46 337.021 455.824L331.186 422.633Z" fill="#0B0704"/>
<path d="M284.81 486.742C219.337 514.022 191.601 436.728 191.602 395.808C209.182 394.747 290.72 374.438 319.364 377.166C366.195 359.434 395.294 343.52 431.668 383.986C451.613 406.175 518.814 485.075 530.787 500.382L466.224 539.939L371.651 432.636C371.651 432.636 312.09 475.375 284.81 486.742Z" fill="#D89314"/>
<path d="M431.668 383.986C395.294 343.52 366.195 359.434 319.363 377.166" stroke="black" stroke-width="0.641492"/>
<path d="M431.668 383.986C395.294 343.52 366.195 359.434 319.363 377.166" stroke="black" stroke-opacity="0.2" stroke-width="0.641492"/>
<path d="M191.602 395.808C206.923 394.883 270.816 379.341 305.946 377.166L194.997 423.543C192.707 413.596 191.602 403.977 191.602 395.808Z" fill="#0B0704"/>
<path d="M371.649 432.636C371.649 432.636 368.925 434.591 364.375 437.775C369.983 430 381.198 410.721 381.198 395.807C383.017 410.721 378.61 430 376.179 437.775L371.649 432.636Z" fill="#0B0704"/>
<path d="M235.249 253.95C257.528 253.95 303.905 257.132 303.905 257.132L321.182 375.802L177.506 417.177C204.332 264.407 202.968 253.95 235.249 253.95Z" fill="#234DF0"/>
<path d="M255.947 303.015L258.503 316.791L247.468 314.169L255.947 303.015Z" fill="#FFBDEA"/>
<path d="M253.435 318.059C251.253 312.966 238.583 273.217 232.52 253.979C211.696 254.472 205.837 261.676 195.027 318.059C197.053 331.244 199.7 358.524 208.4 368.072C224.36 385.589 259.392 360.146 267.075 351.25C275.714 341.247 286.172 322.151 290.264 313.512C284.353 316.695 256.163 324.424 253.435 318.059Z" fill="#110D09"/>
<path d="M272.941 304.623C271.029 303.288 270.705 300.767 272.218 298.991C273.73 297.216 276.507 296.859 278.419 298.194L327.806 332.677L322.328 339.106L272.941 304.623Z" fill="#FFB26F"/>
<path d="M327.808 332.677L278.722 298.405C276.81 297.07 274.033 297.426 272.52 299.202C271.008 300.977 271.332 303.499 273.244 304.834L276.926 307.405C280.257 307.152 278.037 303.433 279.562 304.797C281.469 306.501 284.315 304.635 285.504 306.118C286.694 307.601 320.892 330.661 322.705 331.946C323.772 332.701 323.581 333.805 323.251 335.204C322.412 335.916 319.485 335.812 320.128 337.569L322.33 339.106L327.808 332.677Z" fill="#EE9D56"/>
<path d="M324.853 336.26L273.79 300.722" stroke="#FEFCFE" stroke-width="0.641492"/>
<path d="M322.33 339.105L327.782 332.62L333.748 342.27L322.33 339.105Z" fill="#110D09"/>
<path d="M333.746 342.27L330.063 341.249L331.823 339.16L333.746 342.27Z" fill="#099B4C"/>
<path d="M274.146 296.769L270.332 301.244C269.873 301.784 269.971 302.55 270.552 302.955L274.957 306.031L280.333 299.531L276.03 296.527C275.449 296.121 274.606 296.229 274.146 296.769Z" fill="#5B35FF"/>
<path d="M207.841 361.037C202.899 347.861 201.32 337.704 201.148 334.273L244.548 311.661C245.235 312.862 246.421 322.455 247.07 323.969C248.434 327.152 271.63 324.295 279.352 317.604C287.075 310.913 301.849 304.42 308.027 308.023C314.205 311.626 320.897 321.405 325.531 328.096C327.081 330.335 326.046 332.214 320.897 329.64C322.442 332.214 320.897 335.817 317.808 335.817C318.323 339.419 311.116 337.361 305.452 334.273C299.789 331.185 290.522 329.126 288.463 332.214C257.279 367.618 214.062 377.621 207.841 361.037Z" fill="white" stroke="black" stroke-width="0.641492"/>
<path d="M318.001 335.791C314.515 332.76 306.816 326.424 303.906 325.333" stroke="black" stroke-width="0.641492"/>
<path d="M321.183 329.88C318.758 327.152 313.09 321.423 309.816 320.332" stroke="black" stroke-width="0.641492"/>
<path d="M231.613 253.95C233.149 253.95 234.825 253.965 236.614 253.993L245.708 313.512L201.15 337.609C190.692 272.591 185.054 255.041 231.613 253.95Z" fill="#234DF0"/>
<path d="M245.708 313.512L201.15 337.609C192.131 281.531 186.696 260.765 215.245 255.414" stroke="black" stroke-width="0.641492"/>
<path d="M350.099 299.872H405.751L367.491 371.71H312.998L350.099 299.872Z" fill="#16B15D"/>
<path d="M361.191 305.328L363.534 299.872H395.747L393.404 305.328H361.191Z" fill="#5B35FF"/>
<path d="M371.772 296.234H392.113L389.72 300.781H369.379L371.772 296.234Z" fill="#5B35FF"/>
<path d="M282.313 355.006L284.235 365.367L275.936 363.395L282.313 355.006Z" fill="#FFBDEA"/>
<path d="M214.12 277.06L210.201 288.21L203.231 281.656L214.12 277.06Z" fill="#FFBDEA"/>
<path d="M197.117 383.8L209.334 386.494L203.337 394.655L197.117 383.8Z" fill="#FFBDEA"/>
<path d="M293.03 263.709L303.512 271.615L294.225 276.784L293.03 263.709Z" fill="#FFBDEA"/>
<path d="M365.817 359.434C362.179 355.796 364.604 354.887 366.271 354.887C376.274 359.434 376.729 355.796 369.909 351.704C363.089 347.612 363.089 343.066 365.817 344.43C368.544 345.794 373.546 347.612 373.546 346.703C373.546 345.794 372.637 345.794 369.909 342.156C365.817 336.7 369.454 336.245 373.546 336.7C371.273 333.972 374.91 332.608 376.729 333.063C378.548 333.517 384.913 338.519 386.277 336.246C386.825 335.333 388.52 332.246 390.476 328.765C391.737 326.52 394.488 324.916 394.488 331.331C394.488 336.7 388.203 343.627 389.005 344.43C390.369 345.794 389.46 350.34 386.732 351.704C387.641 353.068 384.459 356.251 382.185 357.615C382.64 358.979 376.729 364.89 374.001 363.981C371.273 363.071 370.363 363.981 365.817 359.434Z" fill="white" stroke="black" stroke-width="0.641492"/>
<circle cx="174.776" cy="546.304" r="5.45607" fill="#FDEAFB"/>
<circle cx="169.321" cy="574.494" r="5.45607" fill="#FDEAFB"/>
<circle cx="163.864" cy="602.684" r="5.45607" fill="#FDEAFB"/>
<circle cx="158.409" cy="630.873" r="5.45607" fill="#FDEAFB"/>
<circle cx="200.237" cy="550.851" r="5.45607" fill="#FDEAFB"/>
<circle cx="194.782" cy="579.041" r="5.45607" fill="#FDEAFB"/>
<circle cx="189.325" cy="607.23" r="5.45607" fill="#FDEAFB"/>
<circle cx="183.87" cy="635.42" r="5.45607" fill="#FDEAFB"/>
<circle cx="225.7" cy="555.398" r="5.45607" fill="#FDEAFB"/>
<circle cx="220.245" cy="583.587" r="5.45607" fill="#FDEAFB"/>
<circle cx="214.79" cy="611.777" r="5.45607" fill="#FDEAFB"/>
<circle cx="209.333" cy="639.967" r="5.45607" fill="#FDEAFB"/>
<circle cx="251.165" cy="559.944" r="5.45607" fill="#FDEAFB"/>
<circle cx="245.706" cy="588.134" r="5.45607" fill="#FDEAFB"/>
<circle cx="240.249" cy="616.324" r="5.45607" fill="#FDEAFB"/>
<circle cx="234.794" cy="644.513" r="5.45607" fill="#FDEAFB"/>
<circle cx="276.626" cy="564.491" r="5.45607" fill="#FDEAFB"/>
<circle cx="271.165" cy="592.681" r="5.45607" fill="#FDEAFB"/>
<circle cx="265.712" cy="620.87" r="5.45607" fill="#FDEAFB"/>
<circle cx="260.255" cy="649.06" r="5.45607" fill="#FDEAFB"/>
<path d="M448.949 96.933L541.691 144.528" stroke="black" stroke-width="1.28298"/>
<path d="M434.498 125.845L527.048 173.814" stroke="black" stroke-width="1.28298"/>
<path d="M420.137 154.58L512.305 203.277" stroke="black" stroke-width="1.28298"/>
<path d="M405.73 183.413L497.616 232.642" stroke="black" stroke-width="1.28298"/>
<path d="M391.9 211.211L482.343 263.042" stroke="black" stroke-width="1.28298"/>
<path d="M176.486 660.095L216.259 667.341V675.491H176.486V660.095Z" fill="#F5DAF2"/>
<path d="M489.535 597.871H657.606" stroke="black" stroke-width="1.28298"/>
<path d="M183.541 705H350.97" stroke="black" stroke-width="1.28298"/>
<path d="M82.9637 316.591L42.2026 335.576L2 264.663H54.4868L98.0397 244.561L129.308 300.398L82.9637 316.591Z" fill="white" stroke="black" stroke-width="1.92448"/>
<path d="M42.2052 308.215L82.9662 316.591L121.494 294.815L88.5499 240.094L54.4893 264.663L13.1699 256.287L42.2052 308.215Z" fill="#F5DAF2" stroke="black" stroke-width="1.28298"/>
<path d="M55.043 264.663L82.4031 316.033" stroke="black" stroke-width="1.28298"/>
<path d="M99.5532 215.219C99.6504 225.148 87.6389 233.036 89.0404 243.815C87.3129 243.832 69.2158 244.009 67.8879 244.022C69.0695 232.355 58.2017 224.69 58.113 215.625C58.001 204.182 67.1869 194.814 78.6302 194.702C90.0736 194.59 99.4411 203.776 99.5532 215.219Z" fill="#FFBDEA"/>
<path d="M102.882 211.785C103.086 204.203 97.9488 189.224 75.7708 189.97" stroke="#181411" stroke-width="1.28298"/>
<path d="M67.4794 245.305C67.4724 244.597 68.0412 244.017 68.7497 244.01L88.0459 243.821C88.7544 243.814 89.3344 244.383 89.3413 245.091L89.3688 247.896C89.3757 248.604 88.807 249.184 88.0984 249.191L68.8023 249.38C68.0938 249.387 67.5137 248.818 67.5068 248.11L67.4794 245.305Z" fill="#181411"/>
<path d="M67.534 250.642C67.5271 249.933 68.0959 249.353 68.8044 249.346L88.3681 249.155C89.0766 249.148 89.6567 249.717 89.6636 250.425L89.6941 253.539C89.701 254.248 89.1323 254.828 88.4237 254.835L68.86 255.026C68.1515 255.033 67.5715 254.465 67.5645 253.756L67.534 250.642Z" fill="#181411"/>
<rect x="72.8652" y="254.815" width="12.0873" height="4.77758" rx="1.28298" transform="rotate(-0.560903 72.8652 254.815)" fill="#181411"/>
<path d="M81.1845 244.638C80.7503 237.927 80.9922 223.297 86.4845 220.207C92.885 216.607 91.3897 230.262 77.7507 219.309C75.2586 217.308 76.0508 213.162 78.0967 213.196C80.5766 213.237 81.9413 217.952 77.1188 221.127C68.7758 226.945 65.1199 221.36 67.396 219.786C69.1822 218.55 76.1845 219.868 75.6462 244.642" stroke="#0B0704" stroke-width="0.641492"/>
</svg>
