<svg width="16" height="16" viewBox="0 0 16 16" fill="none" xmlns="http://www.w3.org/2000/svg">
<mask id="mask0_196_32" style="mask-type:luminance" maskUnits="userSpaceOnUse" x="0" y="0" width="16" height="16">
<path d="M15.0321 6.66082H8.1676V9.50709H12.1189C11.7505 11.3153 10.2102 12.3534 8.1676 12.3534C5.75664 12.3534 3.81448 10.4112 3.81448 8.00024C3.81448 5.58928 5.75664 3.64712 8.1676 3.64712C9.20565 3.64712 10.1432 4.01547 10.8799 4.61821L13.023 2.47513C11.7171 1.33662 10.0428 0.633423 8.1676 0.633423C4.08236 0.633423 0.800781 3.91501 0.800781 8.00024C0.800781 12.0855 4.08236 15.3671 8.1676 15.3671C11.851 15.3671 15.1996 12.6882 15.1996 8.00024C15.1996 7.56493 15.1326 7.09613 15.0321 6.66082Z" fill="white"/>
</mask>
<g mask="url(#mask0_196_32)">
<path d="M0.130859 12.3528V3.64661L5.8234 7.99973L0.130859 12.3528Z" fill="#FBBC05"/>
</g>
<mask id="mask1_196_32" style="mask-type:luminance" maskUnits="userSpaceOnUse" x="0" y="0" width="16" height="16">
<path d="M15.0321 6.66082H8.1676V9.50709H12.1189C11.7505 11.3153 10.2102 12.3534 8.1676 12.3534C5.75664 12.3534 3.81448 10.4112 3.81448 8.00024C3.81448 5.58928 5.75664 3.64712 8.1676 3.64712C9.20565 3.64712 10.1432 4.01547 10.8799 4.61821L13.023 2.47513C11.7171 1.33662 10.0428 0.633423 8.1676 0.633423C4.08236 0.633423 0.800781 3.91501 0.800781 8.00024C0.800781 12.0855 4.08236 15.3671 8.1676 15.3671C11.851 15.3671 15.1996 12.6882 15.1996 8.00024C15.1996 7.56493 15.1326 7.09613 15.0321 6.66082Z" fill="white"/>
</mask>
<g mask="url(#mask1_196_32)">
<path d="M0.130859 3.64703L5.8234 8.00015L8.16739 5.95754L16.2039 4.6516V-0.036377H0.130859V3.64703Z" fill="#EA4335"/>
</g>
<mask id="mask2_196_32" style="mask-type:luminance" maskUnits="userSpaceOnUse" x="0" y="0" width="16" height="16">
<path d="M15.0321 6.66045H8.1676V9.50673H12.1189C11.7505 11.3149 10.2102 12.353 8.1676 12.353C5.75664 12.353 3.81448 10.4108 3.81448 7.99988C3.81448 5.58892 5.75664 3.64676 8.1676 3.64676C9.20565 3.64676 10.1432 4.0151 10.8799 4.61784L13.023 2.47476C11.7171 1.33625 10.0428 0.633057 8.1676 0.633057C4.08236 0.633057 0.800781 3.91464 0.800781 7.99988C0.800781 12.0851 4.08236 15.3667 8.1676 15.3667C11.851 15.3667 15.1996 12.6879 15.1996 7.99988C15.1996 7.56456 15.1326 7.09577 15.0321 6.66045Z" fill="white"/>
</mask>
<g mask="url(#mask2_196_32)">
<path d="M0.130859 12.3529L10.1765 4.65123L12.8219 4.98609L16.2039 -0.0367432V16.0363H0.130859V12.3529Z" fill="#34A853"/>
</g>
<mask id="mask3_196_32" style="mask-type:luminance" maskUnits="userSpaceOnUse" x="0" y="0" width="16" height="16">
<path d="M15.0321 6.66045H8.1676V9.50673H12.1189C11.7505 11.3149 10.2102 12.353 8.1676 12.353C5.75664 12.353 3.81448 10.4108 3.81448 7.99988C3.81448 5.58892 5.75664 3.64676 8.1676 3.64676C9.20565 3.64676 10.1432 4.0151 10.8799 4.61784L13.023 2.47476C11.7171 1.33625 10.0428 0.633057 8.1676 0.633057C4.08236 0.633057 0.800781 3.91464 0.800781 7.99988C0.800781 12.0851 4.08236 15.3667 8.1676 15.3667C11.851 15.3667 15.1996 12.6879 15.1996 7.99988C15.1996 7.56456 15.1326 7.09577 15.0321 6.66045Z" fill="white"/>
</mask>
<g mask="url(#mask3_196_32)">
<path d="M16.2043 16.0359L5.8238 7.99936L4.48438 6.99479L16.2043 3.64624V16.0359Z" fill="#4285F4"/>
</g>
</svg>
