<svg width="18" height="19" viewBox="0 0 18 19" fill="none" xmlns="http://www.w3.org/2000/svg">
<path d="M15.75 8.62463V15.125C15.75 15.4234 15.6315 15.7095 15.4205 15.9205C15.2095 16.1315 14.9234 16.25 14.625 16.25H11.8125C11.5141 16.25 11.228 16.1315 11.017 15.9205C10.806 15.7095 10.6875 15.4234 10.6875 15.125V12.3125C10.6875 12.1633 10.6282 12.0203 10.5227 11.9148C10.4173 11.8093 10.2742 11.75 10.125 11.75H7.875C7.72582 11.75 7.58274 11.8093 7.47725 11.9148C7.37176 12.0203 7.3125 12.1633 7.3125 12.3125V15.125C7.3125 15.4234 7.19397 15.7095 6.98299 15.9205C6.77202 16.1315 6.48587 16.25 6.1875 16.25H3.375C3.07663 16.25 2.79048 16.1315 2.5795 15.9205C2.36853 15.7095 2.25 15.4234 2.25 15.125V8.62463C2.24998 8.46893 2.28227 8.31492 2.34485 8.17235C2.40742 8.02978 2.4989 7.90174 2.61352 7.79635L8.23851 2.48917L8.24625 2.48143C8.45335 2.29309 8.72323 2.18872 9.00316 2.18872C9.2831 2.18872 9.55298 2.29309 9.76008 2.48143C9.76248 2.48418 9.76506 2.48677 9.76781 2.48917L15.3928 7.79635C15.5063 7.9023 15.5966 8.03058 15.6581 8.17313C15.7195 8.31567 15.7508 8.4694 15.75 8.62463Z" fill="white"/>
</svg>
