<svg width="20" height="20" viewBox="0 0 20 20" fill="none" xmlns="http://www.w3.org/2000/svg">
<mask id="mask0_250_281" style="mask-type:alpha" maskUnits="userSpaceOnUse" x="0" y="0" width="20" height="20">
<circle cx="10" cy="10" r="10" fill="#D9D9D9"/>
</mask>
<g mask="url(#mask0_250_281)">
<path d="M-7.51322 -3.87109H27.7965C28.99 -3.86464 29.961 -2.88722 29.961 -1.69367V21.5257C29.961 22.7225 28.9803 23.7031 27.7836 23.7031H-7.51322C-8.70354 23.6966 -9.67773 22.7192 -9.67773 21.5257V-1.69367C-9.67773 -2.88722 -8.70677 -3.86464 -7.51322 -3.87109Z" fill="#FF9933"/>
<path d="M-9.67773 5.31921H29.961V14.5128H-9.67773V5.31921Z" fill="white"/>
<path d="M-9.67773 14.5128H29.961V21.5257C29.961 22.7225 28.9803 23.7031 27.7836 23.7031H-7.51322C-8.70354 23.6967 -9.67773 22.7193 -9.67773 21.5257V14.5128Z" fill="#128807"/>
<path d="M13.8197 9.91619C13.8197 7.88393 12.1745 6.23877 10.1423 6.23877C8.11 6.23877 6.46484 7.88393 6.46484 9.91619C6.46484 11.9452 8.11 13.5936 10.1423 13.5936C12.1745 13.5936 13.8197 11.9484 13.8197 9.91619Z" fill="#000088"/>
<path d="M13.358 9.91584C13.358 8.13842 11.9193 6.69971 10.1419 6.69971C8.36449 6.69971 6.92578 8.13842 6.92578 9.91584C6.92578 11.6933 8.36449 13.132 10.1419 13.132C11.9193 13.132 13.358 11.6933 13.358 9.91584Z" fill="white"/>
<path d="M10.7839 9.91616C10.7839 9.56132 10.4968 9.271 10.1419 9.271C9.7871 9.271 9.5 9.55809 9.5 9.91616C9.5 10.271 9.7871 10.5581 10.1419 10.5581C10.4968 10.5581 10.7839 10.271 10.7839 9.91616Z" fill="#000088"/>
<path d="M13.4909 10.3581C13.5038 10.271 13.4393 10.1903 13.3522 10.1774C13.2651 10.1645 13.1845 10.229 13.1716 10.3161C13.1587 10.4032 13.2232 10.4839 13.3103 10.4968C13.4006 10.5065 13.4812 10.4452 13.4909 10.3581Z" fill="#000088"/>
<path d="M10.1409 13.1321L10.2506 11.203L10.1409 10.2837L10.0312 11.203L10.1409 13.1321Z" fill="#000088"/>
<path d="M13.2607 11.2097C13.2961 11.129 13.2542 11.0323 13.1736 11C13.0929 10.9645 12.9961 11.0065 12.9639 11.0871C12.9284 11.1678 12.9703 11.2645 13.051 11.2968C13.1348 11.329 13.2284 11.2903 13.2607 11.2097Z" fill="black"/>
<path d="M9.30859 13.0226L9.91505 11.1871L10.0473 10.271L9.70214 11.1323L9.30859 13.0226Z" fill="black"/>
<path d="M12.822 11.9741C12.8768 11.9032 12.8639 11.8032 12.793 11.7483C12.722 11.6935 12.622 11.7064 12.5672 11.7774C12.5123 11.8483 12.5252 11.9483 12.5962 12.0032C12.6672 12.058 12.7672 12.0419 12.822 11.9741Z" fill="black"/>
<path d="M8.53125 12.7031L9.59254 11.087L9.95706 10.2354L9.40222 10.9741L8.53125 12.7031Z" fill="black"/>
<path d="M12.1973 12.5964C12.2682 12.5416 12.2811 12.4416 12.2263 12.3706C12.1715 12.2996 12.0715 12.2867 12.0005 12.3416C11.9295 12.3964 11.9166 12.4964 11.9715 12.5674C12.0263 12.6351 12.1295 12.6513 12.1973 12.5964Z" fill="black"/>
<path d="M7.86719 12.1902L9.30912 10.9031L9.88009 10.1772L9.15429 10.7482L7.86719 12.1902Z" fill="black"/>
<path d="M11.4353 13.0386C11.5159 13.0031 11.5579 12.9096 11.5224 12.8289C11.4869 12.7483 11.3933 12.7064 11.3127 12.7418C11.2321 12.7741 11.1901 12.8709 11.2256 12.9515C11.2579 13.0322 11.3514 13.0709 11.4353 13.0386Z" fill="black"/>
<path d="M7.35547 11.5259L9.0845 10.6549L9.82321 10.1001L8.9716 10.4646L7.35547 11.5259Z" fill="black"/>
<path d="M10.584 13.2642C10.6711 13.2513 10.7324 13.1707 10.7227 13.0836C10.7098 12.9965 10.6292 12.9352 10.5421 12.9449C10.455 12.9578 10.3937 13.0384 10.4033 13.1255C10.413 13.2158 10.4937 13.2771 10.584 13.2642Z" fill="black"/>
<path d="M7.03516 10.7483L8.9287 10.3548L9.78677 10.0128L8.87064 10.1418L7.03516 10.7483Z" fill="black"/>
<path d="M9.70026 13.2644C9.78736 13.2773 9.868 13.2127 9.88091 13.1257C9.89381 13.0386 9.82929 12.9579 9.7422 12.945C9.6551 12.9321 9.57445 12.9966 9.56155 13.0837C9.55187 13.174 9.61316 13.2547 9.70026 13.2644Z" fill="black"/>
<path d="M6.92578 9.91583L8.85481 10.0255L9.77417 9.91583L8.85481 9.80615L6.92578 9.91583Z" fill="black"/>
<path d="M8.84846 13.0385C8.92911 13.074 9.02588 13.032 9.05814 12.9514C9.0904 12.8707 9.05169 12.774 8.97104 12.7417C8.8904 12.7062 8.79362 12.7482 8.76136 12.8288C8.72911 12.9095 8.76782 13.003 8.84846 13.0385Z" fill="black"/>
<path d="M7.03516 9.08374L8.87064 9.69019L9.78677 9.82245L8.9287 9.47729L7.03516 9.08374Z" fill="black"/>
<path d="M8.08409 12.5964C8.15505 12.6513 8.25505 12.6384 8.30989 12.5674C8.36473 12.4964 8.35183 12.3964 8.28086 12.3416C8.20989 12.2867 8.10989 12.2996 8.05505 12.3706C8.00344 12.4416 8.01634 12.5416 8.08409 12.5964Z" fill="black"/>
<path d="M7.35547 8.30615L8.9716 9.36744L9.82321 9.73196L9.0845 9.17712L7.35547 8.30615Z" fill="black"/>
<path d="M7.46073 11.9741C7.51557 12.0451 7.61557 12.058 7.68654 12.0032C7.75751 11.9483 7.77041 11.8483 7.71557 11.7774C7.66073 11.7064 7.56073 11.6935 7.48976 11.7483C7.42202 11.7999 7.40589 11.9032 7.46073 11.9741Z" fill="black"/>
<path d="M7.86719 7.64185L9.15429 9.08378L9.88009 9.65797L9.30912 8.92894L7.86719 7.64185Z" fill="black"/>
<path d="M7.01918 11.2096C7.05466 11.2902 7.14821 11.3321 7.22885 11.2967C7.3095 11.2612 7.35144 11.1676 7.31595 11.087C7.28047 11.0063 7.18692 10.9644 7.10627 10.9999C7.02563 11.0321 6.98692 11.1257 7.01918 11.2096Z" fill="black"/>
<path d="M8.53125 7.12891L9.40222 8.85794L9.95706 9.59665L9.59254 8.74826L8.53125 7.12891Z" fill="black"/>
<path d="M6.79273 10.3579C6.80563 10.445 6.88628 10.5063 6.97337 10.4966C7.06047 10.4837 7.12176 10.4031 7.11208 10.316C7.09918 10.2289 7.01854 10.1676 6.93144 10.1773C6.84112 10.187 6.77983 10.2676 6.79273 10.3579Z" fill="black"/>
<path d="M9.30859 6.80957L9.70214 8.70312L10.0473 9.56118L9.91505 8.64505L9.30859 6.80957Z" fill="black"/>
<path d="M6.79266 9.47419C6.77976 9.56128 6.84427 9.64193 6.93137 9.65483C7.01847 9.66774 7.09911 9.60322 7.11202 9.51612C7.12492 9.42903 7.0604 9.34838 6.97331 9.33548C6.88298 9.3258 6.80234 9.38709 6.79266 9.47419Z" fill="black"/>
<path d="M10.1409 6.69971L10.0312 8.62874L10.1409 9.54809L10.2506 8.62874L10.1409 6.69971Z" fill="black"/>
<path d="M7.02247 8.62251C6.98699 8.70315 7.02893 8.79993 7.10957 8.83219C7.19022 8.86444 7.28699 8.82573 7.31925 8.74509C7.35473 8.66444 7.3128 8.56767 7.23215 8.53541C7.14828 8.50315 7.05473 8.54186 7.02247 8.62251Z" fill="black"/>
<path d="M10.9731 6.80957L10.3666 8.64505L10.2344 9.56118L10.5795 8.70312L10.9731 6.80957Z" fill="black"/>
<path d="M7.4617 7.86134C7.40686 7.93231 7.41977 8.03231 7.49073 8.08715C7.5617 8.14198 7.6617 8.12908 7.71654 8.05811C7.77138 7.98715 7.75847 7.88714 7.68751 7.83231C7.61654 7.77747 7.51654 7.79037 7.4617 7.86134Z" fill="black"/>
<path d="M11.752 7.12891L10.6907 8.74826L10.3262 9.59665L10.881 8.85794L11.752 7.12891Z" fill="black"/>
<path d="M8.08644 7.23523C8.01547 7.29007 8.00257 7.39007 8.0574 7.46104C8.11224 7.53201 8.21224 7.54491 8.28321 7.49007C8.35418 7.43523 8.36708 7.33523 8.31224 7.26427C8.2574 7.1933 8.15418 7.18362 8.08644 7.23523Z" fill="black"/>
<path d="M12.4152 7.6416L10.9733 8.9287L10.4023 9.65773L11.1282 9.08354L12.4152 7.6416Z" fill="black"/>
<path d="M8.84846 6.79685C8.76782 6.83233 8.72911 6.92588 8.76136 7.00652C8.79685 7.08717 8.8904 7.12911 8.97104 7.09362C9.05169 7.05814 9.09362 6.96459 9.05814 6.88394C9.02588 6.80007 8.93233 6.76136 8.84846 6.79685Z" fill="black"/>
<path d="M12.9287 8.30627L11.1996 9.17724L10.4609 9.73208L11.3126 9.36757L12.9287 8.30627Z" fill="black"/>
<path d="M9.70026 6.56756C9.61316 6.58047 9.55187 6.66111 9.56155 6.74821C9.57445 6.83531 9.6551 6.8966 9.7422 6.88692C9.82929 6.87401 9.89381 6.79337 9.88091 6.70627C9.87123 6.61918 9.79058 6.55466 9.70026 6.56756Z" fill="black"/>
<path d="M13.2477 9.08398L11.3542 9.47753L10.4961 9.82269L11.4122 9.69044L13.2477 9.08398Z" fill="black"/>
<path d="M10.5827 6.56756C10.4956 6.55466 10.4149 6.61918 10.402 6.70627C10.3891 6.79337 10.4536 6.87401 10.5407 6.88692C10.6278 6.89982 10.7085 6.83531 10.7214 6.74821C10.7311 6.66111 10.6698 6.57724 10.5827 6.56756Z" fill="black"/>
<path d="M13.3582 9.91583L11.4291 9.80615L10.5098 9.91583L11.4291 10.0255L13.3582 9.91583Z" fill="black"/>
<path d="M11.4353 6.79664C11.3546 6.76116 11.2579 6.8031 11.2256 6.88374C11.1901 6.96439 11.2321 7.06116 11.3127 7.09342C11.3933 7.12568 11.4901 7.08697 11.5224 7.00632C11.5546 6.92245 11.5159 6.8289 11.4353 6.79664Z" fill="black"/>
<path d="M13.2477 10.7482L11.4122 10.1417L10.4961 10.0127L11.3542 10.3546L13.2477 10.7482Z" fill="black"/>
<path d="M12.1973 7.23514C12.1263 7.1803 12.0263 7.1932 11.9715 7.26417C11.9166 7.33514 11.9295 7.43514 12.0005 7.48998C12.0715 7.54482 12.1715 7.53191 12.2263 7.46094C12.2811 7.38998 12.2682 7.28998 12.1973 7.23514Z" fill="black"/>
<path d="M12.9287 11.5257L11.3126 10.4644L10.4609 10.0999L11.1996 10.6547L12.9287 11.5257Z" fill="black"/>
<path d="M12.822 7.86134C12.7672 7.79037 12.6672 7.77747 12.5962 7.83231C12.5252 7.88714 12.5123 7.98715 12.5672 8.05811C12.622 8.12908 12.722 8.14198 12.793 8.08715C12.8607 8.03231 12.8768 7.92908 12.822 7.86134Z" fill="black"/>
<path d="M12.4152 12.1902L11.1282 10.7482L10.4023 10.1772L10.9733 10.9031L12.4152 12.1902Z" fill="black"/>
<path d="M13.2646 8.62227C13.2291 8.54162 13.1355 8.49969 13.0549 8.53517C12.9742 8.57065 12.9323 8.6642 12.9678 8.74485C13.0033 8.82549 13.0968 8.8642 13.1775 8.83194C13.2581 8.79969 13.2968 8.70614 13.2646 8.62227Z" fill="black"/>
<path d="M11.752 12.7031L10.881 10.9741L10.3262 10.2354L10.6907 11.087L11.752 12.7031Z" fill="black"/>
<path d="M13.4903 9.47419C13.4774 9.38709 13.3967 9.3258 13.3096 9.33548C13.2225 9.34838 13.1612 9.42903 13.1709 9.51612C13.1838 9.60322 13.2645 9.66451 13.3516 9.65483C13.4419 9.64516 13.5032 9.56451 13.4903 9.47419Z" fill="black"/>
<path d="M10.9731 13.0226L10.5795 11.1323L10.2344 10.271L10.3666 11.1871L10.9731 13.0226Z" fill="black"/>
</g>
</svg>
