<svg width="18" height="19" viewBox="0 0 18 19" fill="none" xmlns="http://www.w3.org/2000/svg">
<path d="M15.7503 9.49995C15.7503 9.64913 15.6911 9.79221 15.5856 9.89769C15.4801 10.0032 15.337 10.0624 15.1878 10.0624H9.00031C8.85113 10.0624 8.70805 10.0032 8.60257 9.89769C8.49708 9.79221 8.43781 9.64913 8.43781 9.49995C8.43781 9.35076 8.49708 9.20769 8.60257 9.1022C8.70805 8.99671 8.85113 8.93745 9.00031 8.93745H15.1878C15.337 8.93745 15.4801 8.99671 15.5856 9.1022C15.6911 9.20769 15.7503 9.35076 15.7503 9.49995ZM9.00031 5.56245H15.1878C15.337 5.56245 15.4801 5.50318 15.5856 5.39769C15.6911 5.2922 15.7503 5.14913 15.7503 4.99995C15.7503 4.85076 15.6911 4.70769 15.5856 4.6022C15.4801 4.49671 15.337 4.43745 15.1878 4.43745H9.00031C8.85113 4.43745 8.70805 4.49671 8.60257 4.6022C8.49708 4.70769 8.43781 4.85076 8.43781 4.99995C8.43781 5.14913 8.49708 5.2922 8.60257 5.39769C8.70805 5.50318 8.85113 5.56245 9.00031 5.56245ZM15.1878 13.4374H9.00031C8.85113 13.4374 8.70805 13.4967 8.60257 13.6022C8.49708 13.7077 8.43781 13.8508 8.43781 13.9999C8.43781 14.1491 8.49708 14.2922 8.60257 14.3977C8.70805 14.5032 8.85113 14.5624 9.00031 14.5624H15.1878C15.337 14.5624 15.4801 14.5032 15.5856 14.3977C15.6911 14.2922 15.7503 14.1491 15.7503 13.9999C15.7503 13.8508 15.6911 13.7077 15.5856 13.6022C15.4801 13.4967 15.337 13.4374 15.1878 13.4374ZM5.78984 3.47698L3.93781 5.32971L3.21078 4.60198C3.10523 4.49643 2.96208 4.43713 2.81281 4.43713C2.66355 4.43713 2.52039 4.49643 2.41484 4.60198C2.3093 4.70753 2.25 4.85068 2.25 4.99995C2.25 5.14921 2.3093 5.29237 2.41484 5.39792L3.53984 6.52292C3.59209 6.57521 3.65412 6.6167 3.72241 6.64501C3.7907 6.67332 3.86389 6.68789 3.93781 6.68789C4.01173 6.68789 4.08493 6.67332 4.15322 6.64501C4.2215 6.6167 4.28354 6.57521 4.33578 6.52292L6.58578 4.27292C6.69133 4.16737 6.75063 4.02421 6.75063 3.87495C6.75063 3.72568 6.69133 3.58253 6.58578 3.47698C6.48023 3.37143 6.33708 3.31213 6.18781 3.31213C6.03855 3.31213 5.89539 3.37143 5.78984 3.47698ZM5.78984 7.97698L3.93781 9.82971L3.21078 9.10198C3.10523 8.99643 2.96208 8.93713 2.81281 8.93713C2.66355 8.93713 2.52039 8.99643 2.41484 9.10198C2.3093 9.20753 2.25 9.35068 2.25 9.49995C2.25 9.57386 2.26456 9.64704 2.29284 9.71533C2.32113 9.78361 2.36258 9.84565 2.41484 9.89792L3.53984 11.0229C3.59209 11.0752 3.65412 11.1167 3.72241 11.145C3.7907 11.1733 3.86389 11.1879 3.93781 11.1879C4.01173 11.1879 4.08493 11.1733 4.15322 11.145C4.2215 11.1167 4.28354 11.0752 4.33578 11.0229L6.58578 8.77292C6.69133 8.66737 6.75063 8.52421 6.75063 8.37495C6.75063 8.22568 6.69133 8.08253 6.58578 7.97698C6.48023 7.87143 6.33708 7.81213 6.18781 7.81213C6.03855 7.81213 5.89539 7.87143 5.78984 7.97698ZM5.78984 12.477L3.93781 14.3297L3.21078 13.602C3.15852 13.5497 3.09648 13.5083 3.02819 13.48C2.95991 13.4517 2.88672 13.4371 2.81281 13.4371C2.7389 13.4371 2.66572 13.4517 2.59743 13.48C2.52915 13.5083 2.46711 13.5497 2.41484 13.602C2.36258 13.6542 2.32113 13.7163 2.29284 13.7846C2.26456 13.8529 2.25 13.926 2.25 13.9999C2.25 14.0739 2.26456 14.147 2.29284 14.2153C2.32113 14.2836 2.36258 14.3457 2.41484 14.3979L3.53984 15.5229C3.59209 15.5752 3.65412 15.6167 3.72241 15.645C3.7907 15.6733 3.86389 15.6879 3.93781 15.6879C4.01173 15.6879 4.08493 15.6733 4.15322 15.645C4.2215 15.6167 4.28354 15.5752 4.33578 15.5229L6.58578 13.2729C6.69133 13.1674 6.75063 13.0242 6.75063 12.8749C6.75063 12.7257 6.69133 12.5825 6.58578 12.477C6.48023 12.3714 6.33708 12.3121 6.18781 12.3121C6.03855 12.3121 5.89539 12.3714 5.78984 12.477Z" fill="#3A4264"/>
</svg>
