<svg width="668" height="705" viewBox="0 0 668 705" fill="none" xmlns="http://www.w3.org/2000/svg">
<path d="M101.012 84.8989H309.687L355.216 345L143.364 348.177L101.012 84.8989Z" fill="#110D09"/>
<path d="M109.271 72.827H317.947L363.476 332.928H154.801L109.271 72.827Z" fill="white"/>
<circle cx="175.443" cy="97.7234" r="5.24133" fill="#099B4C"/>
<circle cx="208.857" cy="97.7234" r="5.24133" fill="#099B4C"/>
<circle cx="242.925" cy="97.7234" r="5.24133" fill="#099B4C"/>
<circle cx="276.339" cy="97.7234" r="5.24133" fill="#099B4C"/>
<path d="M159.064 73.1857C161.954 63.2538 171.199 55.6897 180.444 62.0854C189.689 68.481 184.488 94.8021 174.665 97.7233" stroke="#5B35FF" stroke-width="3.17679"/>
<path d="M192.477 73.1857C195.438 63.2538 204.914 55.6897 214.39 62.0854C223.866 68.481 218.536 94.8021 208.468 97.7233" stroke="#5B35FF" stroke-width="3.17679"/>
<path d="M226.547 73.1857C229.436 63.2538 238.681 55.6897 247.926 62.0854C257.171 68.481 251.971 94.8021 242.148 97.7233" stroke="#5B35FF" stroke-width="3.17679"/>
<path d="M259.959 73.1857C262.92 63.2538 272.396 55.6897 281.873 62.0854C291.349 68.481 286.018 94.8021 275.95 97.7233" stroke="#5B35FF" stroke-width="3.17679"/>
<path d="M166.271 157.344H294.684" stroke="black" stroke-width="1.90608"/>
<path d="M171.512 181.585H300.579" stroke="black" stroke-width="1.90608"/>
<path d="M176.754 206.481H305.166" stroke="black" stroke-width="1.90608"/>
<path d="M181.994 230.722H309.752" stroke="black" stroke-width="1.90608"/>
<path d="M186.58 254.963H314.337" stroke="black" stroke-width="1.90608"/>
<path d="M191.168 279.859H320.236" stroke="black" stroke-width="1.90608"/>
<path d="M247.337 600.691L264.85 552.555L215.189 524.987L177.059 576.788L247.337 600.691Z" fill="white" stroke="black" stroke-width="0.635359"/>
<path d="M264.85 552.555L215.189 524.987L210.646 531.16L260.152 565.469L264.85 552.555Z" fill="#110D09" stroke="black" stroke-width="0.635359"/>
<path d="M311.004 642.348L332.978 595.871L286.213 563.563L243.393 611.741L311.004 642.348Z" fill="white" stroke="black" stroke-width="0.635359"/>
<path d="M332.977 595.871L286.213 563.563L274.354 576.906L323.62 615.663L332.977 595.871Z" fill="#110D09" stroke="black" stroke-width="0.635359"/>
<path d="M365.746 172.818H332.993C324.522 175.635 346.545 180.707 351.064 182.397C348.24 181.834 346.545 188.596 350.498 190.85C347.11 190.286 346.545 195.358 351.064 198.739C344.851 202.684 359.534 211.136 363.487 213.39C367.44 215.644 370.264 217.335 371.958 228.605C373.652 239.876 398.499 298.481 422.217 319.331C441.191 336.011 454.969 340.744 475.299 335.109L464.005 275.377C435.958 253.963 390.254 224.21 393.417 204.374C397.369 179.58 372.522 172.818 365.746 172.818Z" fill="white" stroke="#110D09" stroke-width="1.27072"/>
<path d="M422.217 319.331C441.191 336.011 454.969 340.745 475.299 335.109L472.315 319.331C460.311 327.514 420.145 305.332 401.562 293.218C408.13 303.751 415.223 313.183 422.217 319.331Z" fill="#110D09" stroke="#110D09" stroke-width="0.635359"/>
<path d="M512.148 255.512C529.241 236.506 535.201 222.138 526.205 210.259C527.33 208.373 532.84 202.565 545.884 194.42C548.133 218.857 566.688 241.559 575.684 249.855C559.191 254.381 523.394 261.848 512.148 255.512Z" fill="white" stroke="black" stroke-width="0.635359"/>
<path d="M526.205 210.259C527.33 208.373 529.663 202.565 542.708 194.42C540.556 203.421 540.372 219.516 528.465 231.588C531.541 223.564 530.978 216.561 526.205 210.259Z" fill="#110D09" stroke="black" stroke-width="0.635359"/>
<path d="M461.32 269.811L520.254 243.342L545.188 299.658L470.387 342.458L461.32 269.811Z" fill="#D89314"/>
<path d="M545.187 299.658L470.387 342.458L507.334 269.811L545.187 299.658Z" fill="#110D09"/>
<path d="M522.072 217.928C497.398 217.928 510.003 181.34 519.39 163.047C569.005 151 555.596 172.417 550.232 183.125C559.618 193.834 551.573 201.865 543.527 199.188C538.163 213.912 534.14 217.928 522.072 217.928Z" fill="white" stroke="black" stroke-width="0.635359"/>
<path d="M275.05 385.893C238.954 452.375 200.188 521.357 200.188 521.357L273.475 565.47C273.475 565.47 334.418 452.4 349.752 460.544C365.086 468.688 437.321 493.345 471.522 504.656L491.817 427.743C349.752 306.878 326.575 290.994 275.05 385.893Z" fill="#234DF0"/>
<path d="M275.05 385.893C238.954 452.375 200.188 521.357 200.188 521.357L216.022 530.888C240.589 481.844 292.773 379.182 304.972 360.884C322.55 334.516 335.469 322.958 420.607 368.606C339.527 304.918 316.43 309.679 275.05 385.893Z" fill="#2041C1"/>
<path d="M471.522 504.656L491.817 427.743C471.919 410.814 454.354 395.945 438.716 383.152C416.673 373.611 376.677 352.306 357.072 379.309C344.99 395.951 287.606 505.029 261.133 558.041L273.475 565.47C273.475 565.47 334.418 452.4 349.752 460.544C365.086 468.688 437.321 493.346 471.522 504.656Z" fill="#0B0704"/>
<path d="M539.973 144.802C524.849 131.041 509.724 153.059 512.474 164.068C514.674 172.874 529.89 167.737 537.224 164.068C539.973 166.82 545.472 168.196 552.347 166.82C546.847 172.324 549.597 183.333 546.847 188.838C560.597 194.342 548.222 199.846 542.722 198.47C542.722 234.447 555.939 252.168 582.596 254.891C649.969 261.771 651.343 196.564 614.22 200.693C577.096 204.821 582.596 188.838 582.596 164.068C582.596 139.298 545.472 142.05 539.973 144.802Z" fill="#110D09"/>
<path d="M583.389 243.342H520.061C506.49 265.464 471.434 363.178 455.602 404.186C500.836 413.968 605.844 434.886 641.126 440.304C629.641 327.845 630.276 243.342 583.389 243.342Z" fill="#D89314"/>
<path d="M544.185 382.168C562.081 362.79 600.605 319.585 611.533 301.795C602.004 366.92 602.519 397.495 581.673 407.265C560.826 417.035 524.825 399.028 468.127 371.05L544.185 382.168Z" fill="#110D09"/>
<path d="M383.199 276.79C380.045 278.592 381.885 288.427 383.199 293.119C396.153 316.768 373.061 298.186 364.05 289.178C355.038 280.169 350.531 281.858 356.164 293.119C341.52 284.673 343.21 288.615 349.405 300.439C337.577 291.43 340.394 302.128 346.589 311.137C334.198 305.506 344.899 326.965 371.371 338.727C386.579 345.483 418.683 341.542 429.385 349.425C542.596 418.681 583.712 409.109 590.471 387.713C595.878 370.596 600.233 349.8 601.735 341.542L545.34 333.659C541.96 342.668 539.421 352.342 533.584 349.425C508.853 337.063 433.327 325.213 423.752 313.952C410.347 298.186 398.97 302.128 392.774 291.993C386.579 281.858 387.142 274.538 383.199 276.79Z" fill="white" stroke="#110D09" stroke-width="1.27072"/>
<path d="M583.22 243.342H562.898L542.012 336.775L603.542 346.906C603.542 346.906 612.805 296.077 616.343 269.233C609.313 253.09 594.65 243.342 583.22 243.342Z" fill="#D89314"/>
<path d="M424.421 635.994L635.36 634.724V619.475L439.669 496.215L411.078 587.072L424.421 635.994Z" fill="#5B35FF"/>
<path d="M446.022 513.37L635.359 536.878V621.381L428.232 587.707L446.022 513.37Z" fill="#110D09"/>
<path d="M440.305 540.69C488.592 525.442 499.266 595.204 529.255 569.282C566.741 536.878 608.039 594.061 622.653 537.514" stroke="white" stroke-width="0.635359"/>
<path d="M552.127 604.862C558.057 594.272 574.619 576.906 593.425 592.155C612.232 607.403 629.217 595.967 635.359 588.342" stroke="white" stroke-width="0.635359"/>
<path d="M576.918 47.1962C537.118 44.6256 464.966 55.6794 494.751 120.46C531.983 201.436 454.951 197.58 389.475 195.009" stroke="#5B35FF" stroke-width="1.27072" stroke-dasharray="3.81 3.81"/>
<path d="M616.343 269.233C612.805 296.077 603.542 346.906 603.542 346.906L542.012 336.775L554.944 278.922" stroke="black" stroke-width="0.635359"/>
<path d="M584.693 159.64C582.605 144.43 568.636 142.444 562.269 142.859C569.566 128.681 579.673 127.493 587.481 130.253C599.192 134.393 595.252 153.471 584.693 159.64Z" fill="#110D09"/>
<path d="M352.774 613.121L404.998 492.347C438.282 509.909 465.216 526.685 489.861 537.961C586.436 582.149 623.922 537.961 629.054 438.609C404.998 385.027 389.475 350.718 352.774 404.724C325.044 445.529 270.517 545.774 257.369 570.23L352.774 613.121Z" fill="#234DF0"/>
<path d="M629.055 438.609C552.002 420.182 499.612 404.035 462.541 392.975L628.046 453.011C628.465 448.349 628.8 443.547 629.055 438.609Z" fill="#0B0704"/>
<path d="M404.999 454.282C374.722 503.077 333.324 569.607 316.41 596.772L334.593 604.947L404.999 454.282Z" fill="#2041C1"/>
<path d="M395.828 433.95C397.861 457.331 402.788 482.624 404.998 492.347L417.113 499.074C405.93 487.384 398.264 450.787 395.828 433.95Z" fill="#0B0704"/>
<path d="M0 651.243H271.298" stroke="black" stroke-width="1.27072"/>
<path d="M109.281 677.928L373.591 677.928" stroke="black" stroke-width="1.27072"/>
<path d="M458.094 644.889L649.972 644.889" stroke="black" stroke-width="1.27072"/>
<path d="M251.953 631.536C247.736 631.88 144.579 622.786 96.0536 618.655C94.678 610.376 95.7856 603.537 131.339 592.695C173.636 579.798 181.128 553.839 184.339 554.625C202.795 558.011 200.982 570.046 199.671 575.397C236.955 603.813 250.312 574.753 255.565 583.413C260.818 592.073 259.219 608.583 254.72 617.691C250.221 626.799 255.25 626.277 251.953 631.536Z" fill="#234DF0"/>
<path d="M253.029 625.132L95.8702 613.198C96.0377 612.239 96.3481 611.283 96.8587 610.32L253.114 622.816C253.009 623.659 252.994 624.43 253.029 625.132Z" fill="white"/>
<path d="M184.34 554.626C202.797 558.012 200.984 570.046 199.673 575.398C199.138 575.267 191.349 578.351 164.475 591.735C137.601 605.12 129.142 598.588 128.271 593.649C129.265 593.335 130.288 593.017 131.341 592.696C173.638 579.798 181.129 553.84 184.34 554.626Z" fill="#234DF0"/>
<path d="M251.953 631.535C247.785 631.876 144.577 622.786 96.0512 618.654L97.9622 627.063L107.556 624.927L113.796 628.745L121.327 626.504L129.005 629.833L137.457 627.681L148.433 631.409L158.192 629.303L169.167 633.031L180.383 631.145L189.634 635.548L199.942 632.185L206.43 637.018L215.3 633.447L223.257 638.328L233.035 635.017L248.678 640.035C250.538 637.844 252.146 634.343 251.953 631.535Z" fill="#234DF0"/>
<path d="M159.862 586.848L159.346 587.218L159.358 587.235L159.371 587.251L159.862 586.848ZM162.274 574.21L161.65 574.091L162.274 574.21ZM179.773 577.897L179.24 578.244L179.256 578.269L179.275 578.292L179.773 577.897ZM181.297 561.627C181.25 561.279 180.93 561.035 180.582 561.082C180.235 561.128 179.991 561.448 180.037 561.796L181.297 561.627ZM139.821 596.121C140.087 594.725 140.619 592.519 141.095 590.319C141.56 588.168 141.982 585.986 141.976 584.766L140.705 584.772C140.71 585.823 140.328 587.854 139.853 590.05C139.388 592.197 138.842 594.471 138.573 595.883L139.821 596.121ZM141.976 584.766C141.975 584.558 142.016 584.464 142.035 584.434C142.043 584.422 142.047 584.414 142.085 584.406C142.227 584.377 142.616 584.429 143.287 584.863C144.574 585.695 146.421 587.626 148.418 590.919L149.505 590.26C147.461 586.891 145.493 584.776 143.977 583.796C143.245 583.323 142.486 583.027 141.831 583.161C141.472 583.234 141.165 583.435 140.963 583.753C140.772 584.054 140.703 584.412 140.705 584.772L141.976 584.766ZM148.418 590.919C148.934 591.769 149.445 592.379 149.983 592.663C150.27 592.816 150.592 592.889 150.925 592.823C151.252 592.759 151.511 592.575 151.708 592.36C152.083 591.953 152.33 591.329 152.51 590.673C152.696 589.994 152.833 589.186 152.935 588.331C153.34 584.922 153.216 580.471 153.142 579.572L151.876 579.675C151.944 580.512 152.066 584.875 151.673 588.181C151.575 589.004 151.447 589.743 151.284 590.337C151.116 590.954 150.932 591.328 150.773 591.501C150.703 591.576 150.671 591.578 150.679 591.577C150.692 591.574 150.667 591.588 150.578 591.541C150.362 591.426 150 591.076 149.505 590.26L148.418 590.919ZM153.142 579.572C153.135 579.485 153.135 579.417 153.138 579.365C153.139 579.34 153.141 579.321 153.144 579.307C153.146 579.293 153.148 579.287 153.148 579.287C153.146 579.293 153.087 579.438 152.904 579.479C152.788 579.505 152.765 579.45 152.912 579.529C153.04 579.598 153.229 579.731 153.491 579.964C154.547 580.902 156.384 583.087 159.346 587.218L160.379 586.478C157.422 582.353 155.511 580.058 154.335 579.013C154.038 578.75 153.764 578.544 153.513 578.41C153.281 578.285 152.964 578.164 152.628 578.239C152.225 578.328 152.019 578.639 151.935 578.906C151.858 579.153 151.856 579.428 151.876 579.675L153.142 579.572ZM159.371 587.251C159.61 587.542 159.847 587.781 160.087 587.954C160.325 588.126 160.602 588.26 160.91 588.277C161.614 588.318 162.014 587.774 162.216 587.328C162.431 586.856 162.563 586.226 162.65 585.542C162.739 584.846 162.787 584.044 162.813 583.198C162.863 581.51 162.819 579.599 162.797 577.96C162.775 576.279 162.779 574.952 162.898 574.329L161.65 574.091C161.5 574.873 161.505 576.36 161.527 577.977C161.549 579.636 161.591 581.508 161.542 583.161C161.518 583.986 161.471 584.743 161.389 585.381C161.306 586.031 161.193 586.508 161.06 586.802C160.914 587.122 160.862 587.002 160.984 587.009C161.001 587.01 160.954 587.012 160.831 586.924C160.711 586.837 160.552 586.687 160.353 586.445L159.371 587.251ZM162.898 574.329C162.949 574.06 162.979 573.872 163.018 573.705C163.061 573.519 163.085 573.508 163.054 573.547C163.024 573.584 162.957 573.647 162.847 573.677C162.742 573.705 162.665 573.684 162.646 573.678C162.636 573.674 162.718 573.708 162.93 573.908C163.332 574.287 163.961 575.031 164.965 576.321C165.961 577.601 167.302 579.384 169.118 581.815L170.136 581.054C168.321 578.625 166.973 576.832 165.968 575.541C164.971 574.26 164.285 573.44 163.803 572.984C163.573 572.766 163.321 572.565 163.052 572.474C162.904 572.424 162.716 572.396 162.515 572.45C162.31 572.506 162.162 572.627 162.063 572.751C161.893 572.963 161.821 573.239 161.78 573.419C161.734 573.617 161.691 573.873 161.65 574.091L162.898 574.329ZM169.118 581.815C170.032 583.039 170.794 583.846 171.434 584.249C171.756 584.451 172.119 584.598 172.499 584.57C172.915 584.54 173.227 584.311 173.431 584.016C173.621 583.741 173.727 583.399 173.791 583.058C173.856 582.708 173.885 582.308 173.889 581.879C173.897 581.021 173.804 579.986 173.656 578.887C173.064 574.506 171.52 568.736 171.394 568.179L170.154 568.46C170.301 569.104 171.815 574.751 172.397 579.057C172.542 580.13 172.625 581.097 172.618 581.867C172.614 582.252 172.588 582.573 172.541 582.826C172.493 583.086 172.43 583.229 172.385 583.294C172.355 583.338 172.366 583.306 172.407 583.303C172.411 583.302 172.324 583.307 172.111 583.173C171.682 582.903 171.037 582.26 170.136 581.054L169.118 581.815ZM171.394 568.179C171.375 568.099 171.427 568.214 171.314 568.36C171.172 568.543 170.993 568.506 171.036 568.513C171.078 568.52 171.204 568.557 171.432 568.696C171.651 568.829 171.932 569.036 172.279 569.339C173.673 570.561 175.953 573.199 179.24 578.244L180.305 577.55C176.996 572.472 174.641 569.72 173.116 568.384C172.733 568.048 172.392 567.792 172.092 567.61C171.801 567.433 171.512 567.302 171.238 567.258C170.966 567.215 170.571 567.244 170.31 567.582C170.076 567.883 170.104 568.24 170.154 568.46L171.394 568.179ZM179.275 578.292C179.537 578.623 179.794 578.892 180.05 579.084C180.301 579.273 180.602 579.426 180.939 579.435C181.306 579.444 181.606 579.28 181.822 579.047C182.021 578.831 182.152 578.553 182.244 578.278C182.429 577.724 182.522 576.98 182.562 576.152C182.602 575.312 182.589 574.339 182.542 573.302C182.351 569.166 181.595 563.855 181.297 561.627L180.037 561.796C180.339 564.048 181.085 569.293 181.272 573.361C181.319 574.375 181.33 575.306 181.293 576.091C181.254 576.889 181.167 577.491 181.039 577.874C180.975 578.067 180.915 578.155 180.887 578.186C180.875 578.199 180.91 578.163 180.972 578.164C181.002 578.165 180.955 578.175 180.814 578.069C180.677 577.966 180.496 577.787 180.271 577.503L179.275 578.292Z" fill="#234DF0"/>
<path d="M406.777 187.249C410.549 187.716 413.229 191.152 412.762 194.925C412.296 198.697 408.859 201.377 405.087 200.91L316.142 189.906L317.832 176.245L406.777 187.249Z" fill="#16B15D"/>
<path d="M316.141 189.906L404.54 200.842C408.312 201.309 411.749 198.629 412.216 194.857C412.682 191.085 410.002 187.648 406.23 187.182L400.112 186.425C396.147 189.421 401.914 193.069 398.909 192.293C395.154 191.324 393.092 196.281 390.412 195.066C387.733 193.852 326.415 187.372 323.113 186.938C321.172 186.684 320.524 184.93 319.813 182.638C320.291 180.941 324.037 178.783 321.822 176.739L317.831 176.245L316.141 189.906Z" fill="#099B4C"/>
<path d="M316.96 182.369L409.406 193.652" stroke="#FEFCFE" stroke-width="0.635359"/>
<path d="M317.832 176.245L316.22 189.967L301.001 180.666L317.832 176.245Z" fill="#110D09"/>
<path d="M301 180.666L306.429 179.24L305.904 183.663L301 180.666Z" fill="#099B4C"/>
<path d="M406.738 187.244L403.679 186.866L402.174 200.55L405.048 200.905C408.82 201.372 412.257 198.692 412.723 194.92C413.19 191.147 410.51 187.711 406.738 187.244Z" fill="#5B35FF"/>
<path d="M312.502 673.363C308.272 673.307 206.442 654.467 158.528 645.75C157.944 637.379 159.695 630.675 196.117 623.256C239.447 614.429 249.367 589.298 252.489 590.386C270.541 595.507 267.594 607.315 265.782 612.518C300.202 644.343 316.255 616.681 320.663 625.801C325.07 634.92 321.913 651.204 316.57 659.844C311.227 668.484 316.283 668.441 312.502 673.363Z" fill="#234DF0"/>
<path d="M314.182 667.092L158.865 640.302C159.122 639.362 159.522 638.44 160.122 637.53L314.486 664.794C314.302 665.623 314.214 666.389 314.182 667.092Z" fill="#234DF0"/>
<path d="M252.491 590.387C270.543 595.508 267.597 607.316 265.784 612.519C265.264 612.338 257.218 614.669 229.195 625.444C201.172 636.218 193.371 628.913 192.973 623.914C193.992 623.696 195.04 623.477 196.119 623.257C239.449 614.43 249.37 589.299 252.491 590.387Z" fill="white"/>
<path d="M312.5 673.363C308.319 673.307 206.439 654.467 158.524 645.75L159.629 654.302L169.382 653.086L175.231 657.479L182.942 655.962L190.268 660.005L198.887 658.664L209.459 663.416L219.374 662.246L229.946 666.998L241.29 666.185L250.082 671.446L260.662 669.076L266.663 674.503L275.832 671.789L283.29 677.403L293.338 675.035L308.434 681.514C310.494 679.509 312.427 676.177 312.5 673.363Z" fill="#234DF0"/>
<path d="M225.065 620.141L224.516 620.461L224.526 620.479L224.538 620.496L225.065 620.141ZM228.665 607.789L228.055 607.611L228.665 607.789ZM245.735 613.12L245.172 613.414L245.186 613.44L245.202 613.465L245.735 613.12ZM248.796 597.067C248.782 596.717 248.487 596.443 248.137 596.457C247.786 596.47 247.513 596.765 247.526 597.116L248.796 597.067ZM204.235 627.471C204.632 626.107 205.371 623.961 206.053 621.816C206.721 619.718 207.347 617.587 207.457 616.371L206.192 616.257C206.097 617.304 205.524 619.29 204.842 621.43C204.176 623.523 203.417 625.736 203.015 627.116L204.235 627.471ZM207.457 616.371C207.476 616.164 207.526 616.075 207.548 616.047C207.557 616.035 207.561 616.027 207.6 616.023C207.744 616.008 208.127 616.097 208.753 616.592C209.955 617.543 211.611 619.641 213.287 623.108L214.431 622.555C212.716 619.007 210.958 616.715 209.541 615.595C208.858 615.055 208.13 614.689 207.466 614.76C207.101 614.799 206.776 614.969 206.545 615.267C206.326 615.548 206.224 615.899 206.192 616.257L207.457 616.371ZM213.287 623.108C213.719 624.003 214.17 624.658 214.679 624.993C214.951 625.172 215.264 625.275 215.601 625.241C215.933 625.208 216.209 625.05 216.425 624.855C216.837 624.485 217.142 623.887 217.383 623.251C217.633 622.593 217.846 621.802 218.028 620.96C218.756 617.605 219.054 613.162 219.066 612.26L217.795 612.243C217.784 613.083 217.492 617.438 216.787 620.691C216.611 621.501 216.413 622.225 216.195 622.801C215.969 623.398 215.75 623.753 215.575 623.91C215.499 623.979 215.466 623.978 215.474 623.977C215.488 623.976 215.461 623.987 215.377 623.932C215.173 623.797 214.846 623.414 214.431 622.555L213.287 623.108ZM219.066 612.26C219.067 612.173 219.073 612.105 219.081 612.054C219.085 612.029 219.089 612.01 219.092 611.997C219.096 611.983 219.098 611.977 219.098 611.977C219.096 611.983 219.023 612.122 218.838 612.145C218.72 612.16 218.702 612.103 218.841 612.196C218.962 612.276 219.138 612.427 219.376 612.683C220.338 613.717 221.959 616.067 224.516 620.461L225.614 619.822C223.062 615.435 221.378 612.969 220.306 611.817C220.036 611.527 219.783 611.296 219.545 611.138C219.326 610.992 219.022 610.841 218.68 610.884C218.27 610.935 218.037 611.225 217.928 611.483C217.827 611.721 217.799 611.995 217.795 612.243L219.066 612.26ZM224.538 620.496C224.748 620.808 224.962 621.068 225.185 621.263C225.405 621.457 225.668 621.616 225.973 621.663C226.67 621.771 227.119 621.267 227.363 620.842C227.621 620.393 227.812 619.778 227.964 619.105C228.119 618.421 228.243 617.627 228.349 616.788C228.559 615.112 228.697 613.206 228.831 611.572C228.968 609.896 229.097 608.576 229.275 607.967L228.055 607.611C227.832 608.375 227.696 609.856 227.564 611.468C227.428 613.122 227.293 614.989 227.088 616.63C226.985 617.449 226.866 618.198 226.725 618.826C226.58 619.465 226.422 619.929 226.262 620.209C226.087 620.514 226.046 620.389 226.167 620.407C226.183 620.41 226.136 620.408 226.023 620.308C225.911 620.21 225.767 620.046 225.592 619.786L224.538 620.496ZM229.275 607.967C229.351 607.704 229.399 607.519 229.453 607.356C229.514 607.176 229.539 607.167 229.504 607.203C229.471 607.237 229.398 607.293 229.287 607.312C229.179 607.331 229.104 607.303 229.086 607.294C229.076 607.29 229.155 607.331 229.347 607.55C229.711 607.966 230.266 608.766 231.144 610.146C232.014 611.514 233.179 613.416 234.757 616.009L235.842 615.348C234.266 612.758 233.094 610.844 232.216 609.464C231.345 608.095 230.741 607.213 230.303 606.713C230.095 606.475 229.863 606.25 229.605 606.134C229.461 606.07 229.277 606.025 229.072 606.06C228.863 606.096 228.704 606.203 228.594 606.316C228.404 606.511 228.306 606.78 228.248 606.954C228.184 607.147 228.117 607.398 228.055 607.611L229.275 607.967ZM234.757 616.009C235.551 617.314 236.232 618.189 236.832 618.651C237.133 618.883 237.481 619.064 237.861 619.072C238.278 619.082 238.611 618.884 238.842 618.609C239.057 618.353 239.195 618.023 239.291 617.689C239.388 617.347 239.455 616.952 239.5 616.525C239.589 615.672 239.596 614.633 239.552 613.525C239.378 609.108 238.389 603.217 238.316 602.65L237.056 602.813C237.14 603.467 238.112 609.233 238.282 613.575C238.325 614.656 238.316 615.627 238.236 616.393C238.196 616.776 238.14 617.093 238.069 617.34C237.996 617.595 237.92 617.731 237.869 617.791C237.835 617.832 237.849 617.801 237.89 617.802C237.894 617.802 237.806 617.798 237.607 617.645C237.206 617.335 236.625 616.634 235.842 615.348L234.757 616.009ZM238.316 602.65C238.305 602.569 238.346 602.688 238.219 602.823C238.061 602.992 237.886 602.938 237.929 602.949C237.969 602.959 238.092 603.009 238.305 603.168C238.511 603.322 238.771 603.554 239.087 603.889C240.359 605.238 242.379 608.08 245.172 613.414L246.298 612.825C243.486 607.455 241.402 604.492 240.011 603.017C239.661 602.647 239.346 602.36 239.065 602.15C238.792 601.946 238.517 601.789 238.248 601.719C237.982 601.65 237.586 601.642 237.293 601.953C237.033 602.23 237.027 602.588 237.056 602.813L238.316 602.65ZM245.202 613.465C245.431 613.819 245.662 614.112 245.899 614.327C246.131 614.539 246.415 614.72 246.75 614.761C247.115 614.805 247.429 614.67 247.666 614.459C247.885 614.262 248.041 613.999 248.159 613.733C248.396 613.2 248.559 612.468 248.677 611.647C248.797 610.815 248.877 609.844 248.928 608.808C249.13 604.672 248.882 599.314 248.796 597.067L247.526 597.116C247.613 599.387 247.858 604.679 247.658 608.746C247.609 609.76 247.532 610.688 247.42 611.466C247.306 612.256 247.162 612.848 246.998 613.217C246.916 613.403 246.848 613.485 246.818 613.512C246.804 613.525 246.843 613.492 246.903 613.499C246.934 613.503 246.886 613.508 246.755 613.389C246.629 613.273 246.466 613.079 246.269 612.774L245.202 613.465Z" fill="#32B2A5"/>
<path d="M356.307 181.252C359.526 180.359 372.592 183.112 378.723 184.601C381.216 185.206 387.887 186.478 394.24 196.326C394.24 208.08 382.413 203.019 378.723 203.019C368.952 205.81 366.078 187.949 364.929 187.949C360.331 187.391 352.284 182.368 356.307 181.252Z" fill="white"/>
<path d="M378.723 184.601C372.592 183.112 359.526 180.359 356.307 181.252C352.284 182.368 360.331 187.391 364.929 187.949C366.078 187.949 368.952 205.81 378.723 203.019" stroke="black" stroke-width="1.27072"/>
<path d="M512.441 56.183L431.115 49.9265C428.532 49.7278 426.326 51.7702 426.326 54.3609V92.7048C426.326 95.161 428.317 97.1523 430.774 97.1523H452.104L458.548 115L471.932 97.1523H512.1C514.556 97.1523 516.547 95.161 516.547 92.7047V60.6174C516.547 58.2934 514.758 56.3613 512.441 56.183Z" fill="#FEFCFE"/>
<rect x="436.492" y="63.5358" width="38.1215" height="24.779" rx="1.90608" fill="#FFB26F"/>
<path d="M438.398 65.442L450.665 72.8285M472.708 65.442L460.277 72.8285M460.277 72.8285L455.305 75.8195L450.665 72.8285M460.277 72.8285C460.675 73.64 466.741 80.1023 469.724 83.2321M450.665 72.8285L441.382 83.2321" stroke="black" stroke-width="1.27072"/>
<path d="M478.426 66.0773C480.426 66.0773 499.591 66.0773 508.923 66.0773" stroke="black" stroke-width="1.27072"/>
<path d="M478.426 73.7015C480.426 73.7015 499.591 73.7015 508.923 73.7015" stroke="black" stroke-width="1.27072"/>
<path d="M478.426 81.9614C480.426 81.9614 499.591 81.9614 508.923 81.9614" stroke="black" stroke-width="1.27072"/>
<path d="M617.923 53.4612C633.759 36.4895 665.946 2.03685 668 0.000244141L597.379 28.0036L617.923 53.4612Z" fill="#FFBDEA"/>
<path d="M668 0.000244141L597.214 28.3807L565.038 5.16034L668 0.000244141Z" fill="#FFBDEA"/>
<path d="M668 0.000244141L597.55 28.2765L605.235 35.9882L586.022 48.8411L581.538 16.709L668 0.000244141Z" fill="#EA9BD1"/>
<circle cx="534.338" cy="269.392" r="3.81215" fill="white"/>
<circle cx="499.392" cy="324.668" r="3.81215" fill="white"/>
<circle cx="615.664" cy="403.453" r="3.81215" fill="white"/>
<circle cx="583.259" cy="318.95" r="3.81215" fill="white"/>
</svg>
