<svg width="18" height="19" viewBox="0 0 18 19" fill="none" xmlns="http://www.w3.org/2000/svg">
<path d="M7.875 15.6875C7.875 15.8367 7.81574 15.9798 7.71025 16.0852C7.60476 16.1907 7.46168 16.25 7.3125 16.25H3.375C3.07663 16.25 2.79048 16.1315 2.5795 15.9205C2.36853 15.7095 2.25 15.4234 2.25 15.125V3.875C2.25 3.57663 2.36853 3.29048 2.5795 3.0795C2.79048 2.86853 3.07663 2.75 3.375 2.75H7.3125C7.46168 2.75 7.60476 2.80926 7.71025 2.91475C7.81574 3.02024 7.875 3.16332 7.875 3.3125C7.875 3.46168 7.81574 3.60476 7.71025 3.71025C7.60476 3.81574 7.46168 3.875 7.3125 3.875H3.375V15.125H7.3125C7.46168 15.125 7.60476 15.1843 7.71025 15.2898C7.81574 15.3952 7.875 15.5383 7.875 15.6875ZM15.5855 9.10203L12.773 6.28953C12.6943 6.21077 12.594 6.15713 12.4849 6.13539C12.3757 6.11365 12.2625 6.12479 12.1597 6.1674C12.0568 6.21001 11.969 6.28218 11.9072 6.37476C11.8454 6.46734 11.8124 6.57618 11.8125 6.6875V8.9375H7.3125C7.16332 8.9375 7.02024 8.99676 6.91475 9.10225C6.80926 9.20774 6.75 9.35082 6.75 9.5C6.75 9.64918 6.80926 9.79226 6.91475 9.89775C7.02024 10.0032 7.16332 10.0625 7.3125 10.0625H11.8125V12.3125C11.8124 12.4238 11.8454 12.5327 11.9072 12.6252C11.969 12.7178 12.0568 12.79 12.1597 12.8326C12.2625 12.8752 12.3757 12.8864 12.4849 12.8646C12.594 12.8429 12.6943 12.7892 12.773 12.7105L15.5855 9.89797C15.6378 9.84573 15.6793 9.78369 15.7076 9.7154C15.7359 9.64712 15.7504 9.57392 15.7504 9.5C15.7504 9.42608 15.7359 9.35288 15.7076 9.2846C15.6793 9.21631 15.6378 9.15427 15.5855 9.10203Z" fill="#3A4264"/>
</svg>
