<svg width="481" height="461" viewBox="0 0 481 461" fill="none" xmlns="http://www.w3.org/2000/svg">
<rect width="481" height="461" fill="#F4F7FE"/>
<rect width="251.486" height="283.994" transform="translate(115 98)" fill="#F4F7FE"/>
<path d="M292.162 230.993C292.184 239.156 289.536 247.102 284.621 253.62C284.351 253.98 284.012 254.283 283.624 254.513C283.236 254.742 282.807 254.892 282.361 254.955C281.915 255.019 281.461 254.994 281.025 254.881C280.588 254.769 280.178 254.572 279.818 254.301C279.458 254.031 279.155 253.692 278.926 253.304C278.697 252.916 278.546 252.487 278.483 252.041C278.42 251.595 278.445 251.141 278.557 250.705C278.669 250.268 278.866 249.858 279.137 249.498C283.16 244.169 285.327 237.67 285.307 230.993C285.307 222.811 282.057 214.964 276.271 209.179C270.486 203.393 262.639 200.143 254.457 200.143C246.276 200.143 238.429 203.393 232.643 209.179C226.858 214.964 223.608 222.811 223.608 230.993C223.608 231.902 223.247 232.774 222.604 233.417C221.961 234.059 221.089 234.421 220.18 234.421C219.271 234.421 218.399 234.059 217.756 233.417C217.114 232.774 216.752 231.902 216.752 230.993C216.751 227.534 217.225 224.091 218.162 220.761C217.695 220.71 217.224 220.71 216.752 220.71C211.298 220.71 206.067 222.876 202.21 226.733C198.353 230.59 196.186 235.821 196.186 241.276C196.186 246.731 198.353 251.962 202.21 255.819C206.067 259.676 211.298 261.842 216.752 261.842H227.036C227.945 261.842 228.817 262.204 229.459 262.846C230.102 263.489 230.463 264.361 230.463 265.27C230.463 266.179 230.102 267.051 229.459 267.694C228.817 268.337 227.945 268.698 227.036 268.698H216.752C212.983 268.699 209.253 267.922 205.797 266.417C202.341 264.912 199.232 262.71 196.665 259.95C194.098 257.189 192.127 253.929 190.877 250.372C189.626 246.816 189.123 243.04 189.397 239.28C189.671 235.521 190.718 231.858 192.471 228.521C194.225 225.184 196.648 222.244 199.588 219.885C202.529 217.526 205.924 215.799 209.562 214.812C213.2 213.824 217.003 213.597 220.733 214.145C224.531 206.549 230.782 200.458 238.474 196.858C246.165 193.258 254.847 192.36 263.113 194.309C271.379 196.259 278.744 200.942 284.017 207.6C289.289 214.257 292.159 222.5 292.162 230.993ZM253.455 228.568C253.136 228.249 252.758 227.996 252.342 227.824C251.926 227.651 251.48 227.562 251.03 227.562C250.579 227.562 250.133 227.651 249.717 227.824C249.301 227.996 248.923 228.249 248.605 228.568L234.894 242.279C234.575 242.597 234.323 242.975 234.15 243.391C233.978 243.807 233.889 244.253 233.889 244.704C233.889 245.154 233.978 245.6 234.15 246.016C234.323 246.432 234.575 246.81 234.894 247.129C235.537 247.772 236.409 248.133 237.319 248.133C237.769 248.133 238.215 248.045 238.631 247.872C239.047 247.7 239.425 247.447 239.744 247.129L247.602 239.266V265.27C247.602 266.179 247.963 267.051 248.606 267.694C249.249 268.337 250.121 268.698 251.03 268.698C251.939 268.698 252.811 268.337 253.453 267.694C254.096 267.051 254.457 266.179 254.457 265.27V239.266L262.316 247.129C262.634 247.447 263.012 247.7 263.428 247.872C263.844 248.045 264.29 248.133 264.741 248.133C265.191 248.133 265.637 248.045 266.053 247.872C266.469 247.7 266.847 247.447 267.166 247.129C267.484 246.81 267.737 246.432 267.909 246.016C268.082 245.6 268.17 245.154 268.17 244.704C268.17 244.253 268.082 243.807 267.909 243.391C267.737 242.975 267.484 242.597 267.166 242.279L253.455 228.568Z" fill="#00000D" fill-opacity="0.6"/>
<path d="M199.582 279.784H198.474C198.431 279.547 198.352 279.339 198.236 279.159C198.12 278.979 197.978 278.826 197.81 278.701C197.642 278.575 197.453 278.481 197.245 278.417C197.039 278.353 196.82 278.321 196.588 278.321C196.169 278.321 195.794 278.426 195.462 278.637C195.133 278.848 194.873 279.157 194.681 279.564C194.492 279.971 194.397 280.468 194.397 281.055C194.397 281.647 194.492 282.147 194.681 282.554C194.873 282.961 195.134 283.269 195.466 283.477C195.797 283.685 196.17 283.79 196.585 283.79C196.814 283.79 197.032 283.759 197.238 283.697C197.446 283.633 197.634 283.54 197.803 283.417C197.971 283.294 198.113 283.143 198.229 282.966C198.347 282.786 198.429 282.58 198.474 282.348L199.582 282.351C199.522 282.709 199.408 283.038 199.237 283.339C199.069 283.637 198.853 283.895 198.587 284.113C198.325 284.328 198.024 284.495 197.685 284.614C197.347 284.732 196.978 284.791 196.577 284.791C195.948 284.791 195.387 284.642 194.894 284.344C194.402 284.043 194.013 283.613 193.729 283.055C193.448 282.496 193.307 281.829 193.307 281.055C193.307 280.279 193.449 279.612 193.733 279.056C194.017 278.497 194.405 278.069 194.898 277.77C195.39 277.47 195.95 277.319 196.577 277.319C196.963 277.319 197.323 277.375 197.657 277.486C197.993 277.595 198.295 277.756 198.562 277.969C198.83 278.18 199.051 278.438 199.227 278.743C199.402 279.047 199.52 279.393 199.582 279.784ZM201.871 277.419V284.692H200.809V277.419H201.871ZM203.3 284.692V279.237H204.362V284.692H203.3ZM203.836 278.395C203.651 278.395 203.493 278.334 203.36 278.211C203.23 278.085 203.165 277.936 203.165 277.763C203.165 277.588 203.23 277.439 203.36 277.316C203.493 277.19 203.651 277.128 203.836 277.128C204.021 277.128 204.178 277.19 204.308 277.316C204.441 277.439 204.507 277.588 204.507 277.763C204.507 277.936 204.441 278.085 204.308 278.211C204.178 278.334 204.021 278.395 203.836 278.395ZM208.088 284.802C207.56 284.802 207.105 284.682 206.724 284.443C206.345 284.202 206.054 283.869 205.85 283.445C205.647 283.021 205.545 282.536 205.545 281.989C205.545 281.435 205.649 280.946 205.857 280.523C206.066 280.096 206.359 279.764 206.738 279.525C207.117 279.286 207.563 279.166 208.077 279.166C208.491 279.166 208.86 279.243 209.185 279.397C209.509 279.548 209.771 279.761 209.97 280.036C210.171 280.311 210.29 280.632 210.328 280.998H209.295C209.238 280.743 209.108 280.523 208.904 280.338C208.703 280.153 208.433 280.061 208.095 280.061C207.799 280.061 207.539 280.139 207.317 280.295C207.097 280.449 206.925 280.669 206.802 280.956C206.679 281.24 206.617 281.576 206.617 281.964C206.617 282.362 206.678 282.705 206.798 282.994C206.919 283.283 207.09 283.507 207.31 283.665C207.532 283.824 207.794 283.903 208.095 283.903C208.296 283.903 208.478 283.867 208.642 283.793C208.807 283.717 208.946 283.61 209.057 283.47C209.171 283.33 209.25 283.162 209.295 282.966H210.328C210.29 283.319 210.176 283.633 209.984 283.91C209.792 284.187 209.535 284.405 209.213 284.564C208.894 284.722 208.518 284.802 208.088 284.802ZM212.44 282.842L212.433 281.545H212.618L214.791 279.237H216.062L213.584 281.865H213.417L212.44 282.842ZM211.464 284.692V277.419H212.526V284.692H211.464ZM214.908 284.692L212.955 282.099L213.687 281.357L216.212 284.692H214.908ZM220.738 281.453V284.692H219.677V277.419H220.724V280.125H220.792C220.92 279.831 221.115 279.598 221.378 279.425C221.64 279.252 221.984 279.166 222.407 279.166C222.782 279.166 223.108 279.243 223.388 279.397C223.669 279.551 223.887 279.78 224.041 280.086C224.197 280.389 224.275 280.768 224.275 281.222V284.692H223.214V281.35C223.214 280.95 223.111 280.64 222.905 280.42C222.699 280.197 222.412 280.086 222.045 280.086C221.794 280.086 221.569 280.139 221.371 280.246C221.174 280.352 221.019 280.508 220.905 280.714C220.794 280.918 220.738 281.164 220.738 281.453ZM228.043 284.802C227.506 284.802 227.043 284.687 226.655 284.457C226.269 284.225 225.97 283.9 225.76 283.481C225.551 283.059 225.447 282.566 225.447 282C225.447 281.441 225.551 280.949 225.76 280.523C225.97 280.096 226.264 279.764 226.64 279.525C227.019 279.286 227.462 279.166 227.969 279.166C228.276 279.166 228.575 279.217 228.863 279.319C229.152 279.421 229.412 279.58 229.641 279.798C229.871 280.016 230.052 280.299 230.184 280.647C230.317 280.993 230.383 281.413 230.383 281.908V282.284H226.047V281.489H229.343C229.343 281.209 229.286 280.962 229.172 280.746C229.059 280.529 228.899 280.357 228.693 280.231C228.489 280.106 228.25 280.043 227.976 280.043C227.677 280.043 227.417 280.117 227.194 280.263C226.974 280.408 226.804 280.597 226.683 280.832C226.565 281.064 226.506 281.316 226.506 281.588V282.209C226.506 282.574 226.569 282.884 226.697 283.14C226.827 283.395 227.009 283.591 227.241 283.726C227.473 283.858 227.744 283.925 228.054 283.925C228.255 283.925 228.439 283.896 228.604 283.839C228.77 283.78 228.913 283.693 229.034 283.577C229.155 283.461 229.247 283.317 229.311 283.147L230.316 283.328C230.235 283.624 230.091 283.883 229.883 284.106C229.677 284.326 229.417 284.498 229.105 284.621C228.795 284.741 228.441 284.802 228.043 284.802ZM231.561 284.692V279.237H232.588V280.104H232.645C232.744 279.81 232.919 279.579 233.17 279.411C233.423 279.241 233.71 279.155 234.029 279.155C234.096 279.155 234.174 279.158 234.264 279.163C234.356 279.167 234.428 279.173 234.48 279.18V280.196C234.438 280.184 234.362 280.171 234.253 280.157C234.144 280.14 234.035 280.132 233.926 280.132C233.676 280.132 233.452 280.185 233.255 280.292C233.061 280.396 232.907 280.542 232.794 280.729C232.68 280.913 232.623 281.124 232.623 281.361V284.692H231.561ZM237.555 284.802C237.017 284.802 236.555 284.687 236.166 284.457C235.78 284.225 235.482 283.9 235.271 283.481C235.063 283.059 234.959 282.566 234.959 282C234.959 281.441 235.063 280.949 235.271 280.523C235.482 280.096 235.776 279.764 236.152 279.525C236.531 279.286 236.974 279.166 237.48 279.166C237.788 279.166 238.086 279.217 238.375 279.319C238.664 279.421 238.923 279.58 239.153 279.798C239.383 280.016 239.564 280.299 239.696 280.647C239.829 280.993 239.895 281.413 239.895 281.908V282.284H235.559V281.489H238.855C238.855 281.209 238.798 280.962 238.684 280.746C238.57 280.529 238.411 280.357 238.205 280.231C238.001 280.106 237.762 280.043 237.487 280.043C237.189 280.043 236.929 280.117 236.706 280.263C236.486 280.408 236.316 280.597 236.195 280.832C236.076 281.064 236.017 281.316 236.017 281.588V282.209C236.017 282.574 236.081 282.884 236.209 283.14C236.339 283.395 236.52 283.591 236.752 283.726C236.984 283.858 237.255 283.925 237.566 283.925C237.767 283.925 237.95 283.896 238.116 283.839C238.282 283.78 238.425 283.693 238.546 283.577C238.666 283.461 238.759 283.317 238.823 283.147L239.828 283.328C239.747 283.624 239.603 283.883 239.394 284.106C239.188 284.326 238.929 284.498 238.617 284.621C238.307 284.741 237.953 284.802 237.555 284.802ZM246.266 279.237V280.089H243.286V279.237H246.266ZM244.085 277.93H245.147V283.09C245.147 283.296 245.178 283.451 245.24 283.555C245.301 283.657 245.38 283.727 245.477 283.765C245.577 283.8 245.685 283.818 245.801 283.818C245.886 283.818 245.96 283.812 246.024 283.8C246.088 283.788 246.138 283.779 246.173 283.772L246.365 284.649C246.304 284.673 246.216 284.696 246.102 284.72C245.989 284.746 245.847 284.76 245.676 284.763C245.397 284.767 245.137 284.718 244.895 284.614C244.654 284.509 244.458 284.348 244.309 284.131C244.16 283.913 244.085 283.639 244.085 283.31V277.93ZM249.679 284.802C249.168 284.802 248.722 284.685 248.341 284.45C247.959 284.216 247.663 283.888 247.453 283.467C247.242 283.045 247.137 282.553 247.137 281.989C247.137 281.423 247.242 280.929 247.453 280.505C247.663 280.081 247.959 279.752 248.341 279.518C248.722 279.283 249.168 279.166 249.679 279.166C250.191 279.166 250.637 279.283 251.018 279.518C251.399 279.752 251.695 280.081 251.906 280.505C252.117 280.929 252.222 281.423 252.222 281.989C252.222 282.553 252.117 283.045 251.906 283.467C251.695 283.888 251.399 284.216 251.018 284.45C250.637 284.685 250.191 284.802 249.679 284.802ZM249.683 283.91C250.014 283.91 250.289 283.823 250.507 283.648C250.725 283.472 250.886 283.239 250.99 282.948C251.096 282.657 251.15 282.336 251.15 281.986C251.15 281.638 251.096 281.318 250.99 281.027C250.886 280.733 250.725 280.498 250.507 280.32C250.289 280.143 250.014 280.054 249.683 280.054C249.349 280.054 249.072 280.143 248.852 280.32C248.634 280.498 248.472 280.733 248.365 281.027C248.261 281.318 248.209 281.638 248.209 281.986C248.209 282.336 248.261 282.657 248.365 282.948C248.472 283.239 248.634 283.472 248.852 283.648C249.072 283.823 249.349 283.91 249.683 283.91ZM259.509 282.43V279.237H260.574V284.692H259.53V283.747H259.473C259.348 284.038 259.147 284.281 258.87 284.475C258.595 284.667 258.253 284.763 257.843 284.763C257.493 284.763 257.183 284.686 256.913 284.532C256.645 284.376 256.435 284.145 256.281 283.839C256.129 283.534 256.054 283.156 256.054 282.707V279.237H257.115V282.579C257.115 282.95 257.218 283.246 257.424 283.467C257.63 283.687 257.898 283.797 258.227 283.797C258.426 283.797 258.623 283.747 258.82 283.648C259.019 283.548 259.183 283.398 259.314 283.197C259.446 282.995 259.511 282.74 259.509 282.43ZM262.001 286.737V279.237H263.038V280.121H263.127C263.188 280.008 263.277 279.876 263.393 279.727C263.509 279.578 263.67 279.448 263.876 279.337C264.082 279.223 264.354 279.166 264.693 279.166C265.133 279.166 265.526 279.277 265.872 279.5C266.217 279.722 266.488 280.043 266.685 280.462C266.884 280.881 266.983 281.386 266.983 281.975C266.983 282.565 266.885 283.07 266.688 283.491C266.492 283.91 266.222 284.234 265.879 284.461C265.535 284.686 265.144 284.798 264.703 284.798C264.372 284.798 264.101 284.743 263.89 284.631C263.682 284.52 263.518 284.39 263.4 284.241C263.282 284.092 263.191 283.959 263.127 283.843H263.063V286.737H262.001ZM263.041 281.964C263.041 282.348 263.097 282.684 263.208 282.973C263.32 283.262 263.481 283.488 263.691 283.651C263.902 283.812 264.16 283.893 264.465 283.893C264.783 283.893 265.048 283.809 265.261 283.641C265.474 283.47 265.635 283.239 265.744 282.948C265.855 282.657 265.911 282.329 265.911 281.964C265.911 281.605 265.856 281.281 265.747 280.995C265.641 280.708 265.48 280.482 265.264 280.317C265.051 280.151 264.785 280.068 264.465 280.068C264.158 280.068 263.897 280.147 263.684 280.306C263.473 280.465 263.314 280.686 263.205 280.97C263.096 281.254 263.041 281.586 263.041 281.964ZM269.235 277.419V284.692H268.173V277.419H269.235ZM272.961 284.802C272.449 284.802 272.003 284.685 271.622 284.45C271.241 284.216 270.945 283.888 270.734 283.467C270.523 283.045 270.418 282.553 270.418 281.989C270.418 281.423 270.523 280.929 270.734 280.505C270.945 280.081 271.241 279.752 271.622 279.518C272.003 279.283 272.449 279.166 272.961 279.166C273.472 279.166 273.918 279.283 274.299 279.518C274.681 279.752 274.976 280.081 275.187 280.505C275.398 280.929 275.503 281.423 275.503 281.989C275.503 282.553 275.398 283.045 275.187 283.467C274.976 283.888 274.681 284.216 274.299 284.45C273.918 284.685 273.472 284.802 272.961 284.802ZM272.964 283.91C273.296 283.91 273.57 283.823 273.788 283.648C274.006 283.472 274.167 283.239 274.271 282.948C274.377 282.657 274.431 282.336 274.431 281.986C274.431 281.638 274.377 281.318 274.271 281.027C274.167 280.733 274.006 280.498 273.788 280.32C273.57 280.143 273.296 280.054 272.964 280.054C272.63 280.054 272.353 280.143 272.133 280.32C271.915 280.498 271.753 280.733 271.647 281.027C271.542 281.318 271.49 281.638 271.49 281.986C271.49 282.336 271.542 282.657 271.647 282.948C271.753 283.239 271.915 283.472 272.133 283.648C272.353 283.823 272.63 283.91 272.964 283.91ZM278.276 284.812C277.93 284.812 277.618 284.748 277.338 284.621C277.059 284.49 276.838 284.302 276.674 284.056C276.513 283.81 276.433 283.508 276.433 283.15C276.433 282.843 276.492 282.589 276.61 282.391C276.729 282.192 276.888 282.034 277.09 281.918C277.291 281.802 277.516 281.715 277.764 281.655C278.013 281.596 278.266 281.551 278.524 281.52C278.851 281.483 279.116 281.452 279.32 281.428C279.523 281.402 279.671 281.361 279.764 281.304C279.856 281.247 279.902 281.155 279.902 281.027V281.002C279.902 280.692 279.815 280.452 279.639 280.281C279.467 280.111 279.209 280.025 278.865 280.025C278.508 280.025 278.226 280.105 278.02 280.263C277.816 280.42 277.676 280.594 277.597 280.785L276.6 280.558C276.718 280.227 276.891 279.959 277.118 279.756C277.348 279.55 277.612 279.4 277.91 279.308C278.208 279.213 278.522 279.166 278.851 279.166C279.069 279.166 279.3 279.192 279.544 279.244C279.79 279.294 280.019 279.386 280.232 279.521C280.448 279.656 280.624 279.849 280.762 280.1C280.899 280.349 280.968 280.672 280.968 281.069V284.692H279.931V283.946H279.888C279.819 284.083 279.716 284.218 279.579 284.351C279.442 284.483 279.265 284.593 279.05 284.681C278.834 284.769 278.576 284.812 278.276 284.812ZM278.507 283.96C278.8 283.96 279.051 283.902 279.259 283.786C279.47 283.67 279.63 283.519 279.739 283.332C279.85 283.142 279.906 282.94 279.906 282.724V282.021C279.868 282.059 279.794 282.095 279.686 282.128C279.579 282.159 279.457 282.186 279.32 282.209C279.182 282.231 279.049 282.251 278.919 282.27C278.788 282.286 278.679 282.301 278.592 282.312C278.386 282.338 278.198 282.382 278.027 282.444C277.859 282.505 277.724 282.594 277.622 282.71C277.523 282.824 277.473 282.975 277.473 283.165C277.473 283.427 277.57 283.626 277.764 283.761C277.959 283.894 278.206 283.96 278.507 283.96ZM284.424 284.798C283.983 284.798 283.59 284.686 283.245 284.461C282.901 284.234 282.632 283.91 282.435 283.491C282.241 283.07 282.144 282.565 282.144 281.975C282.144 281.386 282.242 280.881 282.439 280.462C282.637 280.043 282.91 279.722 283.255 279.5C283.601 279.277 283.993 279.166 284.431 279.166C284.769 279.166 285.042 279.223 285.248 279.337C285.456 279.448 285.617 279.578 285.73 279.727C285.846 279.876 285.936 280.008 286 280.121H286.064V277.419H287.126V284.692H286.089V283.843H286C285.936 283.959 285.844 284.092 285.723 284.241C285.605 284.39 285.442 284.52 285.233 284.631C285.025 284.743 284.755 284.798 284.424 284.798ZM284.658 283.893C284.963 283.893 285.221 283.812 285.432 283.651C285.645 283.488 285.806 283.262 285.915 282.973C286.026 282.684 286.082 282.348 286.082 281.964C286.082 281.586 286.028 281.254 285.919 280.97C285.81 280.686 285.65 280.465 285.439 280.306C285.229 280.147 284.968 280.068 284.658 280.068C284.338 280.068 284.072 280.151 283.859 280.317C283.646 280.482 283.485 280.708 283.376 280.995C283.27 281.281 283.216 281.605 283.216 281.964C283.216 282.329 283.271 282.657 283.38 282.948C283.489 283.239 283.65 283.47 283.863 283.641C284.078 283.809 284.343 283.893 284.658 283.893Z" fill="#6D6D6D"/>
</svg>
