<svg width="18" height="19" viewBox="0 0 18 19" fill="none" xmlns="http://www.w3.org/2000/svg">
<path d="M16.2358 15.4062C15.1649 13.5549 13.5147 12.2274 11.5889 11.5981C12.5415 11.031 13.2816 10.1669 13.6956 9.13841C14.1095 8.10996 14.1745 6.97405 13.8804 5.90513C13.5863 4.83621 12.9495 3.89338 12.0677 3.22142C11.1859 2.54947 10.1079 2.18555 8.99924 2.18555C7.89061 2.18555 6.81262 2.54947 5.93082 3.22142C5.04903 3.89338 4.41219 4.83621 4.11811 5.90513C3.82402 6.97405 3.88895 8.10996 4.30292 9.13841C4.71689 10.1669 5.45702 11.031 6.40964 11.5981C4.48378 12.2267 2.83354 13.5542 1.76268 15.4062C1.72341 15.4702 1.69736 15.5415 1.68608 15.6158C1.67479 15.69 1.67849 15.7658 1.69696 15.8386C1.71543 15.9114 1.74829 15.9798 1.79361 16.0397C1.83894 16.0996 1.8958 16.1498 1.96084 16.1874C2.02588 16.2249 2.09779 16.2491 2.17233 16.2584C2.24686 16.2678 2.32251 16.2621 2.39481 16.2417C2.4671 16.2213 2.53459 16.1867 2.59327 16.1398C2.65196 16.0929 2.70067 16.0347 2.73651 15.9687C4.0612 13.6793 6.4026 12.3125 8.99924 12.3125C11.5959 12.3125 13.9373 13.6793 15.262 15.9687C15.2978 16.0347 15.3465 16.0929 15.4052 16.1398C15.4639 16.1867 15.5314 16.2213 15.6037 16.2417C15.676 16.2621 15.7516 16.2678 15.8262 16.2584C15.9007 16.2491 15.9726 16.2249 16.0376 16.1874C16.1027 16.1498 16.1596 16.0996 16.2049 16.0397C16.2502 15.9798 16.2831 15.9114 16.3015 15.8386C16.32 15.7658 16.3237 15.69 16.3124 15.6158C16.3011 15.5415 16.2751 15.4702 16.2358 15.4062ZM5.06174 7.24996C5.06174 6.4712 5.29267 5.70992 5.72533 5.0624C6.15799 4.41488 6.77294 3.9102 7.49243 3.61218C8.21191 3.31416 9.00361 3.23619 9.76741 3.38812C10.5312 3.54005 11.2328 3.91506 11.7835 4.46573C12.3341 5.0164 12.7092 5.71799 12.8611 6.48179C13.013 7.24559 12.935 8.03729 12.637 8.75678C12.339 9.47626 11.8343 10.0912 11.1868 10.5239C10.5393 10.9565 9.77801 11.1875 8.99924 11.1875C7.9553 11.1863 6.95443 10.7711 6.21624 10.033C5.47806 9.29478 5.06286 8.29391 5.06174 7.24996Z" fill="#3A4264"/>
</svg>
