<svg width="16" height="16" viewBox="0 0 16 16" fill="none" xmlns="http://www.w3.org/2000/svg">
<path d="M14 8C14 11.3137 11.3137 14 8 14C6.73608 14 5.56344 13.6092 4.59633 12.9418L2.54545 13.4545L3.08288 11.4392C2.40046 10.4653 2 9.27944 2 8C2 4.68629 4.68629 2 8 2C11.3137 2 14 4.68629 14 8Z" fill="url(#paint0_linear_333_743)"/>
<path fill-rule="evenodd" clip-rule="evenodd" d="M8 15C11.866 15 15 11.866 15 8C15 4.13401 11.866 1 8 1C4.13401 1 1 4.13401 1 8C1 9.25544 1.3305 10.4337 1.90924 11.4525L1 15L4.65743 14.1519C5.65069 14.6927 6.78946 15 8 15ZM8 13.9231C11.2712 13.9231 13.9231 11.2712 13.9231 8C13.9231 4.72878 11.2712 2.07692 8 2.07692C4.72878 2.07692 2.07692 4.72878 2.07692 8C2.07692 9.26303 2.47225 10.4337 3.14592 11.3951L2.61538 13.3846L4.63997 12.8785C5.59468 13.5373 6.75229 13.9231 8 13.9231Z" fill="white"/>
<path d="M6.25001 4.74994C6.08358 4.41565 5.82826 4.44525 5.57034 4.44525C5.10938 4.44525 4.39062 4.99739 4.39062 6.02498C4.39063 6.86714 4.76172 7.78901 6.01221 9.16806C7.21902 10.4989 8.80469 11.1874 10.1211 11.164C11.4375 11.1405 11.7083 10.0077 11.7083 9.62516C11.7083 9.4556 11.6031 9.371 11.5306 9.34801C11.082 9.13272 10.2547 8.73157 10.0664 8.6562C9.87816 8.58083 9.77986 8.68278 9.71876 8.73823C9.54804 8.90092 9.20963 9.38039 9.09376 9.48823C8.97789 9.59608 8.80514 9.5415 8.73325 9.50073C8.46872 9.39458 7.75146 9.07554 7.17973 8.52131C6.47266 7.83589 6.43117 7.60007 6.29795 7.39016C6.19138 7.22222 6.26958 7.11919 6.3086 7.07416C6.46095 6.89838 6.6713 6.62699 6.76564 6.49213C6.85997 6.35727 6.78508 6.15251 6.74015 6.02498C6.54689 5.47651 6.38316 5.01737 6.25001 4.74994Z" fill="white"/>
<defs>
<linearGradient id="paint0_linear_333_743" x1="13.25" y1="3.5" x2="2" y2="14" gradientUnits="userSpaceOnUse">
<stop stop-color="#5BD066"/>
<stop offset="1" stop-color="#27B43E"/>
</linearGradient>
</defs>
</svg>
